<svg width="477" height="470" viewBox="0 0 477 470" fill="none" xmlns="http://www.w3.org/2000/svg">
<ellipse cx="238.187" cy="234.699" rx="238.187" ry="234.699" fill="#C4C4C4" fill-opacity="0.3"/>
<path d="M52.1518 240.106C52.2478 240.106 52.3318 240.145 52.4038 240.223L53.0968 240.97C52.5688 241.582 51.9268 242.059 51.1708 242.401C50.4208 242.743 49.5118 242.914 48.4438 242.914C47.5198 242.914 46.6798 242.755 45.9238 242.437C45.1678 242.113 44.5228 241.663 43.9888 241.087C43.4548 240.505 43.0408 239.809 42.7468 238.999C42.4528 238.189 42.3058 237.298 42.3058 236.326C42.3058 235.354 42.4588 234.463 42.7648 233.653C43.0708 232.843 43.4998 232.147 44.0518 231.565C44.6098 230.983 45.2758 230.533 46.0498 230.215C46.8238 229.891 47.6788 229.729 48.6148 229.729C49.5328 229.729 50.3428 229.876 51.0448 230.17C51.7468 230.464 52.3648 230.863 52.8988 231.367L52.3228 232.168C52.2868 232.228 52.2388 232.279 52.1788 232.321C52.1248 232.357 52.0498 232.375 51.9538 232.375C51.8458 232.375 51.7138 232.318 51.5578 232.204C51.4018 232.084 51.1978 231.952 50.9458 231.808C50.6938 231.664 50.3788 231.535 50.0008 231.421C49.6228 231.301 49.1578 231.241 48.6058 231.241C47.9398 231.241 47.3308 231.358 46.7788 231.592C46.2268 231.82 45.7498 232.153 45.3478 232.591C44.9518 233.029 44.6428 233.563 44.4208 234.193C44.1988 234.823 44.0878 235.534 44.0878 236.326C44.0878 237.13 44.2018 237.847 44.4298 238.477C44.6638 239.107 44.9788 239.641 45.3748 240.079C45.7768 240.511 46.2478 240.841 46.7878 241.069C47.3338 241.297 47.9218 241.411 48.5518 241.411C48.9358 241.411 49.2808 241.39 49.5868 241.348C49.8988 241.3 50.1838 241.228 50.4418 241.132C50.7058 241.036 50.9488 240.916 51.1708 240.772C51.3988 240.622 51.6238 240.445 51.8458 240.241C51.9478 240.151 52.0498 240.106 52.1518 240.106ZM62.6382 241.303V242.77H55.3212V229.873H57.0582V241.303H62.6382ZM66.5133 242.77H64.7673V229.873H66.5133V242.77ZM79.0662 240.106C79.1622 240.106 79.2462 240.145 79.3182 240.223L80.0112 240.97C79.4832 241.582 78.8412 242.059 78.0852 242.401C77.3352 242.743 76.4262 242.914 75.3582 242.914C74.4342 242.914 73.5942 242.755 72.8382 242.437C72.0822 242.113 71.4372 241.663 70.9032 241.087C70.3692 240.505 69.9552 239.809 69.6612 238.999C69.3672 238.189 69.2202 237.298 69.2202 236.326C69.2202 235.354 69.3732 234.463 69.6792 233.653C69.9852 232.843 70.4142 232.147 70.9662 231.565C71.5242 230.983 72.1902 230.533 72.9642 230.215C73.7382 229.891 74.5932 229.729 75.5292 229.729C76.4472 229.729 77.2572 229.876 77.9592 230.17C78.6612 230.464 79.2792 230.863 79.8132 231.367L79.2372 232.168C79.2012 232.228 79.1532 232.279 79.0932 232.321C79.0392 232.357 78.9642 232.375 78.8682 232.375C78.7602 232.375 78.6282 232.318 78.4722 232.204C78.3162 232.084 78.1122 231.952 77.8602 231.808C77.6082 231.664 77.2932 231.535 76.9152 231.421C76.5372 231.301 76.0722 231.241 75.5202 231.241C74.8542 231.241 74.2452 231.358 73.6932 231.592C73.1412 231.82 72.6642 232.153 72.2622 232.591C71.8662 233.029 71.5572 233.563 71.3352 234.193C71.1132 234.823 71.0022 235.534 71.0022 236.326C71.0022 237.13 71.1162 237.847 71.3442 238.477C71.5782 239.107 71.8932 239.641 72.2892 240.079C72.6912 240.511 73.1622 240.841 73.7022 241.069C74.2482 241.297 74.8362 241.411 75.4662 241.411C75.8502 241.411 76.1952 241.39 76.5012 241.348C76.8132 241.3 77.0982 241.228 77.3562 241.132C77.6202 241.036 77.8632 240.916 78.0852 240.772C78.3132 240.622 78.5382 240.445 78.7602 240.241C78.8622 240.151 78.9642 240.106 79.0662 240.106ZM83.9727 235.525H84.6297C84.8577 235.525 85.0407 235.498 85.1787 235.444C85.3167 235.384 85.4427 235.285 85.5567 235.147L89.8497 230.287C89.9697 230.131 90.0957 230.023 90.2277 229.963C90.3597 229.903 90.5217 229.873 90.7137 229.873H92.1897L87.2757 235.426C87.1557 235.57 87.0387 235.69 86.9247 235.786C86.8167 235.876 86.6997 235.951 86.5737 236.011C86.7357 236.065 86.8827 236.146 87.0147 236.254C87.1467 236.356 87.2757 236.491 87.4017 236.659L92.5317 242.77H91.0197C90.9057 242.77 90.8067 242.764 90.7227 242.752C90.6447 242.734 90.5757 242.71 90.5157 242.68C90.4557 242.644 90.4017 242.605 90.3537 242.563C90.3117 242.515 90.2697 242.461 90.2277 242.401L85.7817 237.28C85.6617 237.13 85.5327 237.025 85.3947 236.965C85.2567 236.899 85.0467 236.866 84.7647 236.866H83.9727V242.77H82.2357V229.873H83.9727V235.525ZM111.075 236.326C111.075 237.292 110.922 238.18 110.616 238.99C110.31 239.794 109.878 240.487 109.32 241.069C108.762 241.651 108.09 242.104 107.304 242.428C106.524 242.746 105.66 242.905 104.712 242.905C103.764 242.905 102.9 242.746 102.12 242.428C101.34 242.104 100.671 241.651 100.113 241.069C99.5551 240.487 99.1231 239.794 98.8171 238.99C98.5111 238.18 98.3581 237.292 98.3581 236.326C98.3581 235.36 98.5111 234.475 98.8171 233.671C99.1231 232.861 99.5551 232.165 100.113 231.583C100.671 230.995 101.34 230.539 102.12 230.215C102.9 229.891 103.764 229.729 104.712 229.729C105.66 229.729 106.524 229.891 107.304 230.215C108.09 230.539 108.762 230.995 109.32 231.583C109.878 232.165 110.31 232.861 110.616 233.671C110.922 234.475 111.075 235.36 111.075 236.326ZM109.284 236.326C109.284 235.534 109.176 234.823 108.96 234.193C108.744 233.563 108.438 233.032 108.042 232.6C107.646 232.162 107.166 231.826 106.602 231.592C106.038 231.358 105.408 231.241 104.712 231.241C104.022 231.241 103.395 231.358 102.831 231.592C102.267 231.826 101.784 232.162 101.382 232.6C100.986 233.032 100.68 233.563 100.464 234.193C100.248 234.823 100.14 235.534 100.14 236.326C100.14 237.118 100.248 237.829 100.464 238.459C100.68 239.083 100.986 239.614 101.382 240.052C101.784 240.484 102.267 240.817 102.831 241.051C103.395 241.279 104.022 241.393 104.712 241.393C105.408 241.393 106.038 241.279 106.602 241.051C107.166 240.817 107.646 240.484 108.042 240.052C108.438 239.614 108.744 239.083 108.96 238.459C109.176 237.829 109.284 237.118 109.284 236.326ZM124.222 229.873V242.77H123.349C123.211 242.77 123.094 242.746 122.998 242.698C122.908 242.65 122.818 242.569 122.728 242.455L115.267 232.735C115.279 232.885 115.288 233.032 115.294 233.176C115.3 233.32 115.303 233.455 115.303 233.581V242.77H113.773V229.873H114.673C114.751 229.873 114.817 229.879 114.871 229.891C114.925 229.897 114.973 229.912 115.015 229.936C115.057 229.954 115.099 229.984 115.141 230.026C115.183 230.062 115.228 230.11 115.276 230.17L122.737 239.881C122.725 239.725 122.713 239.575 122.701 239.431C122.695 239.281 122.692 239.14 122.692 239.008V229.873H124.222ZM140.701 231.34H136.525V242.77H134.788V231.34H130.603V229.873H140.701V231.34ZM153.264 229.873V242.77H151.518V236.902H144.561V242.77H142.815V229.873H144.561V235.624H151.518V229.873H153.264ZM164.717 241.348L164.708 242.77H156.761V229.873H164.708V231.295H158.507V235.579H163.529V236.947H158.507V241.348H164.717ZM175.962 236.56C176.46 236.56 176.898 236.494 177.276 236.362C177.66 236.23 177.981 236.047 178.239 235.813C178.503 235.573 178.701 235.288 178.833 234.958C178.965 234.628 179.031 234.265 179.031 233.869C179.031 233.047 178.776 232.405 178.266 231.943C177.762 231.481 176.994 231.25 175.962 231.25H173.892V236.56H175.962ZM175.962 229.873C176.778 229.873 177.486 229.969 178.086 230.161C178.692 230.347 179.193 230.614 179.589 230.962C179.985 231.31 180.279 231.73 180.471 232.222C180.669 232.714 180.768 233.263 180.768 233.869C180.768 234.469 180.663 235.018 180.453 235.516C180.243 236.014 179.934 236.443 179.526 236.803C179.124 237.163 178.623 237.445 178.023 237.649C177.429 237.847 176.742 237.946 175.962 237.946H173.892V242.77H172.155V229.873H175.962ZM186.738 236.119C187.242 236.119 187.686 236.059 188.07 235.939C188.46 235.813 188.784 235.639 189.042 235.417C189.306 235.189 189.504 234.919 189.636 234.607C189.768 234.295 189.834 233.95 189.834 233.572C189.834 232.804 189.582 232.225 189.078 231.835C188.574 231.445 187.818 231.25 186.81 231.25H184.902V236.119H186.738ZM192.696 242.77H191.148C190.83 242.77 190.596 242.647 190.446 242.401L187.098 237.793C186.996 237.649 186.885 237.547 186.765 237.487C186.651 237.421 186.471 237.388 186.225 237.388H184.902V242.77H183.165V229.873H186.81C187.626 229.873 188.331 229.957 188.925 230.125C189.519 230.287 190.008 230.524 190.392 230.836C190.782 231.148 191.07 231.526 191.256 231.97C191.442 232.408 191.535 232.9 191.535 233.446C191.535 233.902 191.463 234.328 191.319 234.724C191.175 235.12 190.965 235.477 190.689 235.795C190.419 236.107 190.086 236.374 189.69 236.596C189.3 236.818 188.856 236.986 188.358 237.1C188.58 237.226 188.772 237.409 188.934 237.649L192.696 242.77ZM206.443 236.326C206.443 237.292 206.29 238.18 205.984 238.99C205.678 239.794 205.246 240.487 204.688 241.069C204.13 241.651 203.458 242.104 202.672 242.428C201.892 242.746 201.028 242.905 200.08 242.905C199.132 242.905 198.268 242.746 197.488 242.428C196.708 242.104 196.039 241.651 195.481 241.069C194.923 240.487 194.491 239.794 194.185 238.99C193.879 238.18 193.726 237.292 193.726 236.326C193.726 235.36 193.879 234.475 194.185 233.671C194.491 232.861 194.923 232.165 195.481 231.583C196.039 230.995 196.708 230.539 197.488 230.215C198.268 229.891 199.132 229.729 200.08 229.729C201.028 229.729 201.892 229.891 202.672 230.215C203.458 230.539 204.13 230.995 204.688 231.583C205.246 232.165 205.678 232.861 205.984 233.671C206.29 234.475 206.443 235.36 206.443 236.326ZM204.652 236.326C204.652 235.534 204.544 234.823 204.328 234.193C204.112 233.563 203.806 233.032 203.41 232.6C203.014 232.162 202.534 231.826 201.97 231.592C201.406 231.358 200.776 231.241 200.08 231.241C199.39 231.241 198.763 231.358 198.199 231.592C197.635 231.826 197.152 232.162 196.75 232.6C196.354 233.032 196.048 233.563 195.832 234.193C195.616 234.823 195.508 235.534 195.508 236.326C195.508 237.118 195.616 237.829 195.832 238.459C196.048 239.083 196.354 239.614 196.75 240.052C197.152 240.484 197.635 240.817 198.199 241.051C198.763 241.279 199.39 241.393 200.08 241.393C200.776 241.393 201.406 241.279 201.97 241.051C202.534 240.817 203.014 240.484 203.41 240.052C203.806 239.614 204.112 239.083 204.328 238.459C204.544 237.829 204.652 237.118 204.652 236.326ZM210.888 231.295V235.804H216.189V237.226H210.888V242.77H209.142V229.873H217.089V231.295H210.888ZM221.265 242.77H219.519V229.873H221.265V242.77ZM232.081 241.303V242.77H224.764V229.873H226.501V241.303H232.081ZM242.166 241.348L242.157 242.77H234.21V229.873H242.157V231.295H235.956V235.579H240.978V236.947H235.956V241.348H242.166ZM253.411 236.56C253.909 236.56 254.347 236.494 254.725 236.362C255.109 236.23 255.43 236.047 255.688 235.813C255.952 235.573 256.15 235.288 256.282 234.958C256.414 234.628 256.48 234.265 256.48 233.869C256.48 233.047 256.225 232.405 255.715 231.943C255.211 231.481 254.443 231.25 253.411 231.25H251.341V236.56H253.411ZM253.411 229.873C254.227 229.873 254.935 229.969 255.535 230.161C256.141 230.347 256.642 230.614 257.038 230.962C257.434 231.31 257.728 231.73 257.92 232.222C258.118 232.714 258.217 233.263 258.217 233.869C258.217 234.469 258.112 235.018 257.902 235.516C257.692 236.014 257.383 236.443 256.975 236.803C256.573 237.163 256.072 237.445 255.472 237.649C254.878 237.847 254.191 237.946 253.411 237.946H251.341V242.77H249.604V229.873H253.411ZM262.361 242.77H260.615V229.873H262.361V242.77ZM274.914 240.106C275.01 240.106 275.094 240.145 275.166 240.223L275.859 240.97C275.331 241.582 274.689 242.059 273.933 242.401C273.183 242.743 272.274 242.914 271.206 242.914C270.282 242.914 269.442 242.755 268.686 242.437C267.93 242.113 267.285 241.663 266.751 241.087C266.217 240.505 265.803 239.809 265.509 238.999C265.215 238.189 265.068 237.298 265.068 236.326C265.068 235.354 265.221 234.463 265.527 233.653C265.833 232.843 266.262 232.147 266.814 231.565C267.372 230.983 268.038 230.533 268.812 230.215C269.586 229.891 270.441 229.729 271.377 229.729C272.295 229.729 273.105 229.876 273.807 230.17C274.509 230.464 275.127 230.863 275.661 231.367L275.085 232.168C275.049 232.228 275.001 232.279 274.941 232.321C274.887 232.357 274.812 232.375 274.716 232.375C274.608 232.375 274.476 232.318 274.32 232.204C274.164 232.084 273.96 231.952 273.708 231.808C273.456 231.664 273.141 231.535 272.763 231.421C272.385 231.301 271.92 231.241 271.368 231.241C270.702 231.241 270.093 231.358 269.541 231.592C268.989 231.82 268.512 232.153 268.11 232.591C267.714 233.029 267.405 233.563 267.183 234.193C266.961 234.823 266.85 235.534 266.85 236.326C266.85 237.13 266.964 237.847 267.192 238.477C267.426 239.107 267.741 239.641 268.137 240.079C268.539 240.511 269.01 240.841 269.55 241.069C270.096 241.297 270.684 241.411 271.314 241.411C271.698 241.411 272.043 241.39 272.349 241.348C272.661 241.3 272.946 241.228 273.204 241.132C273.468 241.036 273.711 240.916 273.933 240.772C274.161 240.622 274.386 240.445 274.608 240.241C274.71 240.151 274.812 240.106 274.914 240.106ZM286.804 231.34H282.628V242.77H280.891V231.34H276.706V229.873H286.804V231.34ZM293.895 241.384C294.429 241.384 294.906 241.294 295.326 241.114C295.746 240.934 296.1 240.682 296.388 240.358C296.682 240.034 296.904 239.647 297.054 239.197C297.21 238.747 297.288 238.252 297.288 237.712V229.873H299.025V237.712C299.025 238.456 298.905 239.146 298.665 239.782C298.431 240.418 298.092 240.97 297.648 241.438C297.21 241.9 296.673 242.263 296.037 242.527C295.401 242.791 294.687 242.923 293.895 242.923C293.103 242.923 292.389 242.791 291.753 242.527C291.117 242.263 290.577 241.9 290.133 241.438C289.689 240.97 289.347 240.418 289.107 239.782C288.873 239.146 288.756 238.456 288.756 237.712V229.873H290.493V237.703C290.493 238.243 290.568 238.738 290.718 239.188C290.874 239.638 291.096 240.025 291.384 240.349C291.678 240.673 292.035 240.928 292.455 241.114C292.881 241.294 293.361 241.384 293.895 241.384ZM305.927 236.119C306.431 236.119 306.875 236.059 307.259 235.939C307.649 235.813 307.973 235.639 308.231 235.417C308.495 235.189 308.693 234.919 308.825 234.607C308.957 234.295 309.023 233.95 309.023 233.572C309.023 232.804 308.771 232.225 308.267 231.835C307.763 231.445 307.007 231.25 305.999 231.25H304.091V236.119H305.927ZM311.885 242.77H310.337C310.019 242.77 309.785 242.647 309.635 242.401L306.287 237.793C306.185 237.649 306.074 237.547 305.954 237.487C305.84 237.421 305.66 237.388 305.414 237.388H304.091V242.77H302.354V229.873H305.999C306.815 229.873 307.52 229.957 308.114 230.125C308.708 230.287 309.197 230.524 309.581 230.836C309.971 231.148 310.259 231.526 310.445 231.97C310.631 232.408 310.724 232.9 310.724 233.446C310.724 233.902 310.652 234.328 310.508 234.724C310.364 235.12 310.154 235.477 309.878 235.795C309.608 236.107 309.275 236.374 308.879 236.596C308.489 236.818 308.045 236.986 307.547 237.1C307.769 237.226 307.961 237.409 308.123 237.649L311.885 242.77ZM321.796 241.348L321.787 242.77H313.84V229.873H321.787V231.295H315.586V235.579H320.608V236.947H315.586V241.348H321.796ZM337.41 231.34H333.234V242.77H331.497V231.34H327.312V229.873H337.41V231.34ZM350.86 236.326C350.86 237.292 350.707 238.18 350.401 238.99C350.095 239.794 349.663 240.487 349.105 241.069C348.547 241.651 347.875 242.104 347.089 242.428C346.309 242.746 345.445 242.905 344.497 242.905C343.549 242.905 342.685 242.746 341.905 242.428C341.125 242.104 340.456 241.651 339.898 241.069C339.34 240.487 338.908 239.794 338.602 238.99C338.296 238.18 338.143 237.292 338.143 236.326C338.143 235.36 338.296 234.475 338.602 233.671C338.908 232.861 339.34 232.165 339.898 231.583C340.456 230.995 341.125 230.539 341.905 230.215C342.685 229.891 343.549 229.729 344.497 229.729C345.445 229.729 346.309 229.891 347.089 230.215C347.875 230.539 348.547 230.995 349.105 231.583C349.663 232.165 350.095 232.861 350.401 233.671C350.707 234.475 350.86 235.36 350.86 236.326ZM349.069 236.326C349.069 235.534 348.961 234.823 348.745 234.193C348.529 233.563 348.223 233.032 347.827 232.6C347.431 232.162 346.951 231.826 346.387 231.592C345.823 231.358 345.193 231.241 344.497 231.241C343.807 231.241 343.18 231.358 342.616 231.592C342.052 231.826 341.569 232.162 341.167 232.6C340.771 233.032 340.465 233.563 340.249 234.193C340.033 234.823 339.925 235.534 339.925 236.326C339.925 237.118 340.033 237.829 340.249 238.459C340.465 239.083 340.771 239.614 341.167 240.052C341.569 240.484 342.052 240.817 342.616 241.051C343.18 241.279 343.807 241.393 344.497 241.393C345.193 241.393 345.823 241.279 346.387 241.051C346.951 240.817 347.431 240.484 347.827 240.052C348.223 239.614 348.529 239.083 348.745 238.459C348.961 237.829 349.069 237.118 349.069 236.326ZM367.417 240.106C367.513 240.106 367.597 240.145 367.669 240.223L368.362 240.97C367.834 241.582 367.192 242.059 366.436 242.401C365.686 242.743 364.777 242.914 363.709 242.914C362.785 242.914 361.945 242.755 361.189 242.437C360.433 242.113 359.788 241.663 359.254 241.087C358.72 240.505 358.306 239.809 358.012 238.999C357.718 238.189 357.571 237.298 357.571 236.326C357.571 235.354 357.724 234.463 358.03 233.653C358.336 232.843 358.765 232.147 359.317 231.565C359.875 230.983 360.541 230.533 361.315 230.215C362.089 229.891 362.944 229.729 363.88 229.729C364.798 229.729 365.608 229.876 366.31 230.17C367.012 230.464 367.63 230.863 368.164 231.367L367.588 232.168C367.552 232.228 367.504 232.279 367.444 232.321C367.39 232.357 367.315 232.375 367.219 232.375C367.111 232.375 366.979 232.318 366.823 232.204C366.667 232.084 366.463 231.952 366.211 231.808C365.959 231.664 365.644 231.535 365.266 231.421C364.888 231.301 364.423 231.241 363.871 231.241C363.205 231.241 362.596 231.358 362.044 231.592C361.492 231.82 361.015 232.153 360.613 232.591C360.217 233.029 359.908 233.563 359.686 234.193C359.464 234.823 359.353 235.534 359.353 236.326C359.353 237.13 359.467 237.847 359.695 238.477C359.929 239.107 360.244 239.641 360.64 240.079C361.042 240.511 361.513 240.841 362.053 241.069C362.599 241.297 363.187 241.411 363.817 241.411C364.201 241.411 364.546 241.39 364.852 241.348C365.164 241.3 365.449 241.228 365.707 241.132C365.971 241.036 366.214 240.916 366.436 240.772C366.664 240.622 366.889 240.445 367.111 240.241C367.213 240.151 367.315 240.106 367.417 240.106ZM381.035 229.873V242.77H379.289V236.902H372.332V242.77H370.586V229.873H372.332V235.624H379.289V229.873H381.035ZM391.382 237.982L389.357 232.735C389.297 232.579 389.234 232.399 389.168 232.195C389.102 231.985 389.039 231.763 388.979 231.529C388.853 232.015 388.724 232.42 388.592 232.744L386.567 237.982H391.382ZM395.018 242.77H393.668C393.512 242.77 393.386 242.731 393.29 242.653C393.194 242.575 393.122 242.476 393.074 242.356L391.868 239.242H386.081L384.875 242.356C384.839 242.464 384.77 242.56 384.668 242.644C384.566 242.728 384.44 242.77 384.29 242.77H382.94L388.097 229.873H389.861L395.018 242.77ZM407.363 229.873V242.77H406.49C406.352 242.77 406.235 242.746 406.139 242.698C406.049 242.65 405.959 242.569 405.869 242.455L398.408 232.735C398.42 232.885 398.429 233.032 398.435 233.176C398.441 233.32 398.444 233.455 398.444 233.581V242.77H396.914V229.873H397.814C397.892 229.873 397.958 229.879 398.012 229.891C398.066 229.897 398.114 229.912 398.156 229.936C398.198 229.954 398.24 229.984 398.282 230.026C398.324 230.062 398.369 230.11 398.417 230.17L405.878 239.881C405.866 239.725 405.854 239.575 405.842 239.431C405.836 239.281 405.833 239.14 405.833 239.008V229.873H407.363ZM421.336 236.569V241.519C420.688 241.987 419.995 242.338 419.257 242.572C418.525 242.8 417.721 242.914 416.845 242.914C415.807 242.914 414.871 242.755 414.037 242.437C413.203 242.113 412.489 241.663 411.895 241.087C411.307 240.505 410.854 239.809 410.536 238.999C410.218 238.189 410.059 237.298 410.059 236.326C410.059 235.342 410.212 234.445 410.518 233.635C410.83 232.825 411.271 232.132 411.841 231.556C412.411 230.974 413.104 230.524 413.92 230.206C414.736 229.888 415.648 229.729 416.656 229.729C417.166 229.729 417.64 229.768 418.078 229.846C418.516 229.918 418.921 230.026 419.293 230.17C419.665 230.308 420.01 230.479 420.328 230.683C420.646 230.881 420.943 231.106 421.219 231.358L420.724 232.15C420.646 232.27 420.544 232.348 420.418 232.384C420.298 232.414 420.163 232.384 420.013 232.294C419.869 232.21 419.704 232.108 419.518 231.988C419.332 231.868 419.104 231.754 418.834 231.646C418.57 231.532 418.255 231.436 417.889 231.358C417.529 231.28 417.1 231.241 416.602 231.241C415.876 231.241 415.219 231.361 414.631 231.601C414.043 231.835 413.542 232.174 413.128 232.618C412.714 233.056 412.396 233.59 412.174 234.22C411.952 234.844 411.841 235.546 411.841 236.326C411.841 237.136 411.955 237.862 412.183 238.504C412.417 239.14 412.747 239.683 413.173 240.133C413.605 240.577 414.127 240.916 414.739 241.15C415.351 241.384 416.038 241.501 416.8 241.501C417.4 241.501 417.931 241.435 418.393 241.303C418.861 241.165 419.317 240.976 419.761 240.736V237.901H417.754C417.64 237.901 417.547 237.868 417.475 237.802C417.409 237.736 417.376 237.655 417.376 237.559V236.569H421.336ZM432.165 241.348L432.156 242.77H424.209V229.873H432.156V231.295H425.955V235.579H430.977V236.947H425.955V241.348H432.165ZM210.925 268.56C211.423 268.56 211.861 268.494 212.239 268.362C212.623 268.23 212.944 268.047 213.202 267.813C213.466 267.573 213.664 267.288 213.796 266.958C213.928 266.628 213.994 266.265 213.994 265.869C213.994 265.047 213.739 264.405 213.229 263.943C212.725 263.481 211.957 263.25 210.925 263.25H208.855V268.56H210.925ZM210.925 261.873C211.741 261.873 212.449 261.969 213.049 262.161C213.655 262.347 214.156 262.614 214.552 262.962C214.948 263.31 215.242 263.73 215.434 264.222C215.632 264.714 215.731 265.263 215.731 265.869C215.731 266.469 215.626 267.018 215.416 267.516C215.206 268.014 214.897 268.443 214.489 268.803C214.087 269.163 213.586 269.445 212.986 269.649C212.392 269.847 211.705 269.946 210.925 269.946H208.855V274.77H207.118V261.873H210.925ZM228.577 261.873V274.77H226.831V268.902H219.874V274.77H218.128V261.873H219.874V267.624H226.831V261.873H228.577ZM243.991 268.326C243.991 269.292 243.838 270.18 243.532 270.99C243.226 271.794 242.794 272.487 242.236 273.069C241.678 273.651 241.006 274.104 240.22 274.428C239.44 274.746 238.576 274.905 237.628 274.905C236.68 274.905 235.816 274.746 235.036 274.428C234.256 274.104 233.587 273.651 233.029 273.069C232.471 272.487 232.039 271.794 231.733 270.99C231.427 270.18 231.274 269.292 231.274 268.326C231.274 267.36 231.427 266.475 231.733 265.671C232.039 264.861 232.471 264.165 233.029 263.583C233.587 262.995 234.256 262.539 235.036 262.215C235.816 261.891 236.68 261.729 237.628 261.729C238.576 261.729 239.44 261.891 240.22 262.215C241.006 262.539 241.678 262.995 242.236 263.583C242.794 264.165 243.226 264.861 243.532 265.671C243.838 266.475 243.991 267.36 243.991 268.326ZM242.2 268.326C242.2 267.534 242.092 266.823 241.876 266.193C241.66 265.563 241.354 265.032 240.958 264.6C240.562 264.162 240.082 263.826 239.518 263.592C238.954 263.358 238.324 263.241 237.628 263.241C236.938 263.241 236.311 263.358 235.747 263.592C235.183 263.826 234.7 264.162 234.298 264.6C233.902 265.032 233.596 265.563 233.38 266.193C233.164 266.823 233.056 267.534 233.056 268.326C233.056 269.118 233.164 269.829 233.38 270.459C233.596 271.083 233.902 271.614 234.298 272.052C234.7 272.484 235.183 272.817 235.747 273.051C236.311 273.279 236.938 273.393 237.628 273.393C238.324 273.393 238.954 273.279 239.518 273.051C240.082 272.817 240.562 272.484 240.958 272.052C241.354 271.614 241.66 271.083 241.876 270.459C242.092 269.829 242.2 269.118 242.2 268.326ZM254.83 263.34H250.654V274.77H248.917V263.34H244.732V261.873H254.83V263.34ZM268.279 268.326C268.279 269.292 268.126 270.18 267.82 270.99C267.514 271.794 267.082 272.487 266.524 273.069C265.966 273.651 265.294 274.104 264.508 274.428C263.728 274.746 262.864 274.905 261.916 274.905C260.968 274.905 260.104 274.746 259.324 274.428C258.544 274.104 257.875 273.651 257.317 273.069C256.759 272.487 256.327 271.794 256.021 270.99C255.715 270.18 255.562 269.292 255.562 268.326C255.562 267.36 255.715 266.475 256.021 265.671C256.327 264.861 256.759 264.165 257.317 263.583C257.875 262.995 258.544 262.539 259.324 262.215C260.104 261.891 260.968 261.729 261.916 261.729C262.864 261.729 263.728 261.891 264.508 262.215C265.294 262.539 265.966 262.995 266.524 263.583C267.082 264.165 267.514 264.861 267.82 265.671C268.126 266.475 268.279 267.36 268.279 268.326ZM266.488 268.326C266.488 267.534 266.38 266.823 266.164 266.193C265.948 265.563 265.642 265.032 265.246 264.6C264.85 264.162 264.37 263.826 263.806 263.592C263.242 263.358 262.612 263.241 261.916 263.241C261.226 263.241 260.599 263.358 260.035 263.592C259.471 263.826 258.988 264.162 258.586 264.6C258.19 265.032 257.884 265.563 257.668 266.193C257.452 266.823 257.344 267.534 257.344 268.326C257.344 269.118 257.452 269.829 257.668 270.459C257.884 271.083 258.19 271.614 258.586 272.052C258.988 272.484 259.471 272.817 260.035 273.051C260.599 273.279 261.226 273.393 261.916 273.393C262.612 273.393 263.242 273.279 263.806 273.051C264.37 272.817 264.85 272.484 265.246 272.052C265.642 271.614 265.948 271.083 266.164 270.459C266.38 269.829 266.488 269.118 266.488 268.326Z" fill="white"/>
</svg>
