<svg width="475" height="475" viewBox="0 0 475 475" fill="none" xmlns="http://www.w3.org/2000/svg">
<circle cx="237.5" cy="237.5" r="237.5" fill="#C4C4C4" fill-opacity="0.3"/>
<path d="M51.4676 243.49C51.5636 243.49 51.6476 243.529 51.7196 243.607L52.4126 244.354C51.8846 244.966 51.2426 245.443 50.4866 245.785C49.7366 246.127 48.8276 246.298 47.7596 246.298C46.8356 246.298 45.9956 246.139 45.2396 245.821C44.4836 245.497 43.8386 245.047 43.3046 244.471C42.7706 243.889 42.3566 243.193 42.0626 242.383C41.7686 241.573 41.6216 240.682 41.6216 239.71C41.6216 238.738 41.7746 237.847 42.0806 237.037C42.3866 236.227 42.8156 235.531 43.3676 234.949C43.9256 234.367 44.5916 233.917 45.3656 233.599C46.1396 233.275 46.9946 233.113 47.9306 233.113C48.8486 233.113 49.6586 233.26 50.3606 233.554C51.0626 233.848 51.6806 234.247 52.2146 234.751L51.6386 235.552C51.6026 235.612 51.5546 235.663 51.4946 235.705C51.4406 235.741 51.3656 235.759 51.2696 235.759C51.1616 235.759 51.0296 235.702 50.8736 235.588C50.7176 235.468 50.5136 235.336 50.2616 235.192C50.0096 235.048 49.6946 234.919 49.3166 234.805C48.9386 234.685 48.4736 234.625 47.9216 234.625C47.2556 234.625 46.6466 234.742 46.0946 234.976C45.5426 235.204 45.0656 235.537 44.6636 235.975C44.2676 236.413 43.9586 236.947 43.7366 237.577C43.5146 238.207 43.4036 238.918 43.4036 239.71C43.4036 240.514 43.5176 241.231 43.7456 241.861C43.9796 242.491 44.2946 243.025 44.6906 243.463C45.0926 243.895 45.5636 244.225 46.1036 244.453C46.6496 244.681 47.2376 244.795 47.8676 244.795C48.2516 244.795 48.5966 244.774 48.9026 244.732C49.2146 244.684 49.4996 244.612 49.7576 244.516C50.0216 244.42 50.2646 244.3 50.4866 244.156C50.7146 244.006 50.9396 243.829 51.1616 243.625C51.2636 243.535 51.3656 243.49 51.4676 243.49ZM61.9541 244.687V246.154H54.6371V233.257H56.3741V244.687H61.9541ZM65.8292 246.154H64.0832V233.257H65.8292V246.154ZM78.3821 243.49C78.4781 243.49 78.5621 243.529 78.6341 243.607L79.3271 244.354C78.7991 244.966 78.1571 245.443 77.4011 245.785C76.6511 246.127 75.7421 246.298 74.6741 246.298C73.7501 246.298 72.9101 246.139 72.1541 245.821C71.3981 245.497 70.7531 245.047 70.2191 244.471C69.6851 243.889 69.2711 243.193 68.9771 242.383C68.6831 241.573 68.5361 240.682 68.5361 239.71C68.5361 238.738 68.6891 237.847 68.9951 237.037C69.3011 236.227 69.7301 235.531 70.2821 234.949C70.8401 234.367 71.5061 233.917 72.2801 233.599C73.0541 233.275 73.9091 233.113 74.8451 233.113C75.7631 233.113 76.5731 233.26 77.2751 233.554C77.9771 233.848 78.5951 234.247 79.1291 234.751L78.5531 235.552C78.5171 235.612 78.4691 235.663 78.4091 235.705C78.3551 235.741 78.2801 235.759 78.1841 235.759C78.0761 235.759 77.9441 235.702 77.7881 235.588C77.6321 235.468 77.4281 235.336 77.1761 235.192C76.9241 235.048 76.6091 234.919 76.2311 234.805C75.8531 234.685 75.3881 234.625 74.8361 234.625C74.1701 234.625 73.5611 234.742 73.0091 234.976C72.4571 235.204 71.9801 235.537 71.5781 235.975C71.1821 236.413 70.8731 236.947 70.6511 237.577C70.4291 238.207 70.3181 238.918 70.3181 239.71C70.3181 240.514 70.4321 241.231 70.6601 241.861C70.8941 242.491 71.2091 243.025 71.6051 243.463C72.0071 243.895 72.4781 244.225 73.0181 244.453C73.5641 244.681 74.1521 244.795 74.7821 244.795C75.1661 244.795 75.5111 244.774 75.8171 244.732C76.1291 244.684 76.4141 244.612 76.6721 244.516C76.9361 244.42 77.1791 244.3 77.4011 244.156C77.6291 244.006 77.8541 243.829 78.0761 243.625C78.1781 243.535 78.2801 243.49 78.3821 243.49ZM83.2885 238.909H83.9455C84.1735 238.909 84.3565 238.882 84.4945 238.828C84.6325 238.768 84.7585 238.669 84.8725 238.531L89.1655 233.671C89.2855 233.515 89.4115 233.407 89.5435 233.347C89.6755 233.287 89.8375 233.257 90.0295 233.257H91.5055L86.5915 238.81C86.4715 238.954 86.3545 239.074 86.2405 239.17C86.1325 239.26 86.0155 239.335 85.8895 239.395C86.0515 239.449 86.1985 239.53 86.3305 239.638C86.4625 239.74 86.5915 239.875 86.7175 240.043L91.8475 246.154H90.3355C90.2215 246.154 90.1225 246.148 90.0385 246.136C89.9605 246.118 89.8915 246.094 89.8315 246.064C89.7715 246.028 89.7175 245.989 89.6695 245.947C89.6275 245.899 89.5855 245.845 89.5435 245.785L85.0975 240.664C84.9775 240.514 84.8485 240.409 84.7105 240.349C84.5725 240.283 84.3625 240.25 84.0805 240.25H83.2885V246.154H81.5515V233.257H83.2885V238.909ZM110.391 239.71C110.391 240.676 110.238 241.564 109.932 242.374C109.626 243.178 109.194 243.871 108.636 244.453C108.078 245.035 107.406 245.488 106.62 245.812C105.84 246.13 104.976 246.289 104.028 246.289C103.08 246.289 102.216 246.13 101.436 245.812C100.656 245.488 99.987 245.035 99.429 244.453C98.871 243.871 98.439 243.178 98.133 242.374C97.827 241.564 97.674 240.676 97.674 239.71C97.674 238.744 97.827 237.859 98.133 237.055C98.439 236.245 98.871 235.549 99.429 234.967C99.987 234.379 100.656 233.923 101.436 233.599C102.216 233.275 103.08 233.113 104.028 233.113C104.976 233.113 105.84 233.275 106.62 233.599C107.406 233.923 108.078 234.379 108.636 234.967C109.194 235.549 109.626 236.245 109.932 237.055C110.238 237.859 110.391 238.744 110.391 239.71ZM108.6 239.71C108.6 238.918 108.492 238.207 108.276 237.577C108.06 236.947 107.754 236.416 107.358 235.984C106.962 235.546 106.482 235.21 105.918 234.976C105.354 234.742 104.724 234.625 104.028 234.625C103.338 234.625 102.711 234.742 102.147 234.976C101.583 235.21 101.1 235.546 100.698 235.984C100.302 236.416 99.996 236.947 99.78 237.577C99.564 238.207 99.456 238.918 99.456 239.71C99.456 240.502 99.564 241.213 99.78 241.843C99.996 242.467 100.302 242.998 100.698 243.436C101.1 243.868 101.583 244.201 102.147 244.435C102.711 244.663 103.338 244.777 104.028 244.777C104.724 244.777 105.354 244.663 105.918 244.435C106.482 244.201 106.962 243.868 107.358 243.436C107.754 242.998 108.06 242.467 108.276 241.843C108.492 241.213 108.6 240.502 108.6 239.71ZM123.538 233.257V246.154H122.665C122.527 246.154 122.41 246.13 122.314 246.082C122.224 246.034 122.134 245.953 122.044 245.839L114.583 236.119C114.595 236.269 114.604 236.416 114.61 236.56C114.616 236.704 114.619 236.839 114.619 236.965V246.154H113.089V233.257H113.989C114.067 233.257 114.133 233.263 114.187 233.275C114.241 233.281 114.289 233.296 114.331 233.32C114.373 233.338 114.415 233.368 114.457 233.41C114.499 233.446 114.544 233.494 114.592 233.554L122.053 243.265C122.041 243.109 122.029 242.959 122.017 242.815C122.011 242.665 122.008 242.524 122.008 242.392V233.257H123.538ZM140.017 234.724H135.841V246.154H134.104V234.724H129.919V233.257H140.017V234.724ZM152.579 233.257V246.154H150.833V240.286H143.876V246.154H142.13V233.257H143.876V239.008H150.833V233.257H152.579ZM164.033 244.732L164.024 246.154H156.077V233.257H164.024V234.679H157.823V238.963H162.845V240.331H157.823V244.732H164.033ZM175.278 239.944C175.776 239.944 176.214 239.878 176.592 239.746C176.976 239.614 177.297 239.431 177.555 239.197C177.819 238.957 178.017 238.672 178.149 238.342C178.281 238.012 178.347 237.649 178.347 237.253C178.347 236.431 178.092 235.789 177.582 235.327C177.078 234.865 176.31 234.634 175.278 234.634H173.208V239.944H175.278ZM175.278 233.257C176.094 233.257 176.802 233.353 177.402 233.545C178.008 233.731 178.509 233.998 178.905 234.346C179.301 234.694 179.595 235.114 179.787 235.606C179.985 236.098 180.084 236.647 180.084 237.253C180.084 237.853 179.979 238.402 179.769 238.9C179.559 239.398 179.25 239.827 178.842 240.187C178.44 240.547 177.939 240.829 177.339 241.033C176.745 241.231 176.058 241.33 175.278 241.33H173.208V246.154H171.471V233.257H175.278ZM186.054 239.503C186.558 239.503 187.002 239.443 187.386 239.323C187.776 239.197 188.1 239.023 188.358 238.801C188.622 238.573 188.82 238.303 188.952 237.991C189.084 237.679 189.15 237.334 189.15 236.956C189.15 236.188 188.898 235.609 188.394 235.219C187.89 234.829 187.134 234.634 186.126 234.634H184.218V239.503H186.054ZM192.012 246.154H190.464C190.146 246.154 189.912 246.031 189.762 245.785L186.414 241.177C186.312 241.033 186.201 240.931 186.081 240.871C185.967 240.805 185.787 240.772 185.541 240.772H184.218V246.154H182.481V233.257H186.126C186.942 233.257 187.647 233.341 188.241 233.509C188.835 233.671 189.324 233.908 189.708 234.22C190.098 234.532 190.386 234.91 190.572 235.354C190.758 235.792 190.851 236.284 190.851 236.83C190.851 237.286 190.779 237.712 190.635 238.108C190.491 238.504 190.281 238.861 190.005 239.179C189.735 239.491 189.402 239.758 189.006 239.98C188.616 240.202 188.172 240.37 187.674 240.484C187.896 240.61 188.088 240.793 188.25 241.033L192.012 246.154ZM205.759 239.71C205.759 240.676 205.606 241.564 205.3 242.374C204.994 243.178 204.562 243.871 204.004 244.453C203.446 245.035 202.774 245.488 201.988 245.812C201.208 246.13 200.344 246.289 199.396 246.289C198.448 246.289 197.584 246.13 196.804 245.812C196.024 245.488 195.355 245.035 194.797 244.453C194.239 243.871 193.807 243.178 193.501 242.374C193.195 241.564 193.042 240.676 193.042 239.71C193.042 238.744 193.195 237.859 193.501 237.055C193.807 236.245 194.239 235.549 194.797 234.967C195.355 234.379 196.024 233.923 196.804 233.599C197.584 233.275 198.448 233.113 199.396 233.113C200.344 233.113 201.208 233.275 201.988 233.599C202.774 233.923 203.446 234.379 204.004 234.967C204.562 235.549 204.994 236.245 205.3 237.055C205.606 237.859 205.759 238.744 205.759 239.71ZM203.968 239.71C203.968 238.918 203.86 238.207 203.644 237.577C203.428 236.947 203.122 236.416 202.726 235.984C202.33 235.546 201.85 235.21 201.286 234.976C200.722 234.742 200.092 234.625 199.396 234.625C198.706 234.625 198.079 234.742 197.515 234.976C196.951 235.21 196.468 235.546 196.066 235.984C195.67 236.416 195.364 236.947 195.148 237.577C194.932 238.207 194.824 238.918 194.824 239.71C194.824 240.502 194.932 241.213 195.148 241.843C195.364 242.467 195.67 242.998 196.066 243.436C196.468 243.868 196.951 244.201 197.515 244.435C198.079 244.663 198.706 244.777 199.396 244.777C200.092 244.777 200.722 244.663 201.286 244.435C201.85 244.201 202.33 243.868 202.726 243.436C203.122 242.998 203.428 242.467 203.644 241.843C203.86 241.213 203.968 240.502 203.968 239.71ZM210.203 234.679V239.188H215.504V240.61H210.203V246.154H208.457V233.257H216.404V234.679H210.203ZM220.581 246.154H218.835V233.257H220.581V246.154ZM231.397 244.687V246.154H224.08V233.257H225.817V244.687H231.397ZM241.482 244.732L241.473 246.154H233.526V233.257H241.473V234.679H235.272V238.963H240.294V240.331H235.272V244.732H241.482ZM252.727 239.944C253.225 239.944 253.663 239.878 254.041 239.746C254.425 239.614 254.746 239.431 255.004 239.197C255.268 238.957 255.466 238.672 255.598 238.342C255.73 238.012 255.796 237.649 255.796 237.253C255.796 236.431 255.541 235.789 255.031 235.327C254.527 234.865 253.759 234.634 252.727 234.634H250.657V239.944H252.727ZM252.727 233.257C253.543 233.257 254.251 233.353 254.851 233.545C255.457 233.731 255.958 233.998 256.354 234.346C256.75 234.694 257.044 235.114 257.236 235.606C257.434 236.098 257.533 236.647 257.533 237.253C257.533 237.853 257.428 238.402 257.218 238.9C257.008 239.398 256.699 239.827 256.291 240.187C255.889 240.547 255.388 240.829 254.788 241.033C254.194 241.231 253.507 241.33 252.727 241.33H250.657V246.154H248.92V233.257H252.727ZM261.677 246.154H259.931V233.257H261.677V246.154ZM274.23 243.49C274.326 243.49 274.41 243.529 274.482 243.607L275.175 244.354C274.647 244.966 274.005 245.443 273.249 245.785C272.499 246.127 271.59 246.298 270.522 246.298C269.598 246.298 268.758 246.139 268.002 245.821C267.246 245.497 266.601 245.047 266.067 244.471C265.533 243.889 265.119 243.193 264.825 242.383C264.531 241.573 264.384 240.682 264.384 239.71C264.384 238.738 264.537 237.847 264.843 237.037C265.149 236.227 265.578 235.531 266.13 234.949C266.688 234.367 267.354 233.917 268.128 233.599C268.902 233.275 269.757 233.113 270.693 233.113C271.611 233.113 272.421 233.26 273.123 233.554C273.825 233.848 274.443 234.247 274.977 234.751L274.401 235.552C274.365 235.612 274.317 235.663 274.257 235.705C274.203 235.741 274.128 235.759 274.032 235.759C273.924 235.759 273.792 235.702 273.636 235.588C273.48 235.468 273.276 235.336 273.024 235.192C272.772 235.048 272.457 234.919 272.079 234.805C271.701 234.685 271.236 234.625 270.684 234.625C270.018 234.625 269.409 234.742 268.857 234.976C268.305 235.204 267.828 235.537 267.426 235.975C267.03 236.413 266.721 236.947 266.499 237.577C266.277 238.207 266.166 238.918 266.166 239.71C266.166 240.514 266.28 241.231 266.508 241.861C266.742 242.491 267.057 243.025 267.453 243.463C267.855 243.895 268.326 244.225 268.866 244.453C269.412 244.681 270 244.795 270.63 244.795C271.014 244.795 271.359 244.774 271.665 244.732C271.977 244.684 272.262 244.612 272.52 244.516C272.784 244.42 273.027 244.3 273.249 244.156C273.477 244.006 273.702 243.829 273.924 243.625C274.026 243.535 274.128 243.49 274.23 243.49ZM286.12 234.724H281.944V246.154H280.207V234.724H276.022V233.257H286.12V234.724ZM293.211 244.768C293.745 244.768 294.222 244.678 294.642 244.498C295.062 244.318 295.416 244.066 295.704 243.742C295.998 243.418 296.22 243.031 296.37 242.581C296.526 242.131 296.604 241.636 296.604 241.096V233.257H298.341V241.096C298.341 241.84 298.221 242.53 297.981 243.166C297.747 243.802 297.408 244.354 296.964 244.822C296.526 245.284 295.989 245.647 295.353 245.911C294.717 246.175 294.003 246.307 293.211 246.307C292.419 246.307 291.705 246.175 291.069 245.911C290.433 245.647 289.893 245.284 289.449 244.822C289.005 244.354 288.663 243.802 288.423 243.166C288.189 242.53 288.072 241.84 288.072 241.096V233.257H289.809V241.087C289.809 241.627 289.884 242.122 290.034 242.572C290.19 243.022 290.412 243.409 290.7 243.733C290.994 244.057 291.351 244.312 291.771 244.498C292.197 244.678 292.677 244.768 293.211 244.768ZM305.243 239.503C305.747 239.503 306.191 239.443 306.575 239.323C306.965 239.197 307.289 239.023 307.547 238.801C307.811 238.573 308.009 238.303 308.141 237.991C308.273 237.679 308.339 237.334 308.339 236.956C308.339 236.188 308.087 235.609 307.583 235.219C307.079 234.829 306.323 234.634 305.315 234.634H303.407V239.503H305.243ZM311.201 246.154H309.653C309.335 246.154 309.101 246.031 308.951 245.785L305.603 241.177C305.501 241.033 305.39 240.931 305.27 240.871C305.156 240.805 304.976 240.772 304.73 240.772H303.407V246.154H301.67V233.257H305.315C306.131 233.257 306.836 233.341 307.43 233.509C308.024 233.671 308.513 233.908 308.897 234.22C309.287 234.532 309.575 234.91 309.761 235.354C309.947 235.792 310.04 236.284 310.04 236.83C310.04 237.286 309.968 237.712 309.824 238.108C309.68 238.504 309.47 238.861 309.194 239.179C308.924 239.491 308.591 239.758 308.195 239.98C307.805 240.202 307.361 240.37 306.863 240.484C307.085 240.61 307.277 240.793 307.439 241.033L311.201 246.154ZM321.111 244.732L321.102 246.154H313.155V233.257H321.102V234.679H314.901V238.963H319.923V240.331H314.901V244.732H321.111ZM336.726 234.724H332.55V246.154H330.813V234.724H326.628V233.257H336.726V234.724ZM350.175 239.71C350.175 240.676 350.022 241.564 349.716 242.374C349.41 243.178 348.978 243.871 348.42 244.453C347.862 245.035 347.19 245.488 346.404 245.812C345.624 246.13 344.76 246.289 343.812 246.289C342.864 246.289 342 246.13 341.22 245.812C340.44 245.488 339.771 245.035 339.213 244.453C338.655 243.871 338.223 243.178 337.917 242.374C337.611 241.564 337.458 240.676 337.458 239.71C337.458 238.744 337.611 237.859 337.917 237.055C338.223 236.245 338.655 235.549 339.213 234.967C339.771 234.379 340.44 233.923 341.22 233.599C342 233.275 342.864 233.113 343.812 233.113C344.76 233.113 345.624 233.275 346.404 233.599C347.19 233.923 347.862 234.379 348.42 234.967C348.978 235.549 349.41 236.245 349.716 237.055C350.022 237.859 350.175 238.744 350.175 239.71ZM348.384 239.71C348.384 238.918 348.276 238.207 348.06 237.577C347.844 236.947 347.538 236.416 347.142 235.984C346.746 235.546 346.266 235.21 345.702 234.976C345.138 234.742 344.508 234.625 343.812 234.625C343.122 234.625 342.495 234.742 341.931 234.976C341.367 235.21 340.884 235.546 340.482 235.984C340.086 236.416 339.78 236.947 339.564 237.577C339.348 238.207 339.24 238.918 339.24 239.71C339.24 240.502 339.348 241.213 339.564 241.843C339.78 242.467 340.086 242.998 340.482 243.436C340.884 243.868 341.367 244.201 341.931 244.435C342.495 244.663 343.122 244.777 343.812 244.777C344.508 244.777 345.138 244.663 345.702 244.435C346.266 244.201 346.746 243.868 347.142 243.436C347.538 242.998 347.844 242.467 348.06 241.843C348.276 241.213 348.384 240.502 348.384 239.71ZM366.733 243.49C366.829 243.49 366.913 243.529 366.985 243.607L367.678 244.354C367.15 244.966 366.508 245.443 365.752 245.785C365.002 246.127 364.093 246.298 363.025 246.298C362.101 246.298 361.261 246.139 360.505 245.821C359.749 245.497 359.104 245.047 358.57 244.471C358.036 243.889 357.622 243.193 357.328 242.383C357.034 241.573 356.887 240.682 356.887 239.71C356.887 238.738 357.04 237.847 357.346 237.037C357.652 236.227 358.081 235.531 358.633 234.949C359.191 234.367 359.857 233.917 360.631 233.599C361.405 233.275 362.26 233.113 363.196 233.113C364.114 233.113 364.924 233.26 365.626 233.554C366.328 233.848 366.946 234.247 367.48 234.751L366.904 235.552C366.868 235.612 366.82 235.663 366.76 235.705C366.706 235.741 366.631 235.759 366.535 235.759C366.427 235.759 366.295 235.702 366.139 235.588C365.983 235.468 365.779 235.336 365.527 235.192C365.275 235.048 364.96 234.919 364.582 234.805C364.204 234.685 363.739 234.625 363.187 234.625C362.521 234.625 361.912 234.742 361.36 234.976C360.808 235.204 360.331 235.537 359.929 235.975C359.533 236.413 359.224 236.947 359.002 237.577C358.78 238.207 358.669 238.918 358.669 239.71C358.669 240.514 358.783 241.231 359.011 241.861C359.245 242.491 359.56 243.025 359.956 243.463C360.358 243.895 360.829 244.225 361.369 244.453C361.915 244.681 362.503 244.795 363.133 244.795C363.517 244.795 363.862 244.774 364.168 244.732C364.48 244.684 364.765 244.612 365.023 244.516C365.287 244.42 365.53 244.3 365.752 244.156C365.98 244.006 366.205 243.829 366.427 243.625C366.529 243.535 366.631 243.49 366.733 243.49ZM380.351 233.257V246.154H378.605V240.286H371.648V246.154H369.902V233.257H371.648V239.008H378.605V233.257H380.351ZM390.697 241.366L388.672 236.119C388.612 235.963 388.549 235.783 388.483 235.579C388.417 235.369 388.354 235.147 388.294 234.913C388.168 235.399 388.039 235.804 387.907 236.128L385.882 241.366H390.697ZM394.333 246.154H392.983C392.827 246.154 392.701 246.115 392.605 246.037C392.509 245.959 392.437 245.86 392.389 245.74L391.183 242.626H385.396L384.19 245.74C384.154 245.848 384.085 245.944 383.983 246.028C383.881 246.112 383.755 246.154 383.605 246.154H382.255L387.412 233.257H389.176L394.333 246.154ZM406.679 233.257V246.154H405.806C405.668 246.154 405.551 246.13 405.455 246.082C405.365 246.034 405.275 245.953 405.185 245.839L397.724 236.119C397.736 236.269 397.745 236.416 397.751 236.56C397.757 236.704 397.76 236.839 397.76 236.965V246.154H396.23V233.257H397.13C397.208 233.257 397.274 233.263 397.328 233.275C397.382 233.281 397.43 233.296 397.472 233.32C397.514 233.338 397.556 233.368 397.598 233.41C397.64 233.446 397.685 233.494 397.733 233.554L405.194 243.265C405.182 243.109 405.17 242.959 405.158 242.815C405.152 242.665 405.149 242.524 405.149 242.392V233.257H406.679ZM420.652 239.953V244.903C420.004 245.371 419.311 245.722 418.573 245.956C417.841 246.184 417.037 246.298 416.161 246.298C415.123 246.298 414.187 246.139 413.353 245.821C412.519 245.497 411.805 245.047 411.211 244.471C410.623 243.889 410.17 243.193 409.852 242.383C409.534 241.573 409.375 240.682 409.375 239.71C409.375 238.726 409.528 237.829 409.834 237.019C410.146 236.209 410.587 235.516 411.157 234.94C411.727 234.358 412.42 233.908 413.236 233.59C414.052 233.272 414.964 233.113 415.972 233.113C416.482 233.113 416.956 233.152 417.394 233.23C417.832 233.302 418.237 233.41 418.609 233.554C418.981 233.692 419.326 233.863 419.644 234.067C419.962 234.265 420.259 234.49 420.535 234.742L420.04 235.534C419.962 235.654 419.86 235.732 419.734 235.768C419.614 235.798 419.479 235.768 419.329 235.678C419.185 235.594 419.02 235.492 418.834 235.372C418.648 235.252 418.42 235.138 418.15 235.03C417.886 234.916 417.571 234.82 417.205 234.742C416.845 234.664 416.416 234.625 415.918 234.625C415.192 234.625 414.535 234.745 413.947 234.985C413.359 235.219 412.858 235.558 412.444 236.002C412.03 236.44 411.712 236.974 411.49 237.604C411.268 238.228 411.157 238.93 411.157 239.71C411.157 240.52 411.271 241.246 411.499 241.888C411.733 242.524 412.063 243.067 412.489 243.517C412.921 243.961 413.443 244.3 414.055 244.534C414.667 244.768 415.354 244.885 416.116 244.885C416.716 244.885 417.247 244.819 417.709 244.687C418.177 244.549 418.633 244.36 419.077 244.12V241.285H417.07C416.956 241.285 416.863 241.252 416.791 241.186C416.725 241.12 416.692 241.039 416.692 240.943V239.953H420.652ZM431.481 244.732L431.472 246.154H423.525V233.257H431.472V234.679H425.271V238.963H430.293V240.331H425.271V244.732H431.481ZM210.241 271.944C210.739 271.944 211.177 271.878 211.555 271.746C211.939 271.614 212.26 271.431 212.518 271.197C212.782 270.957 212.98 270.672 213.112 270.342C213.244 270.012 213.31 269.649 213.31 269.253C213.31 268.431 213.055 267.789 212.545 267.327C212.041 266.865 211.273 266.634 210.241 266.634H208.171V271.944H210.241ZM210.241 265.257C211.057 265.257 211.765 265.353 212.365 265.545C212.971 265.731 213.472 265.998 213.868 266.346C214.264 266.694 214.558 267.114 214.75 267.606C214.948 268.098 215.047 268.647 215.047 269.253C215.047 269.853 214.942 270.402 214.732 270.9C214.522 271.398 214.213 271.827 213.805 272.187C213.403 272.547 212.902 272.829 212.302 273.033C211.708 273.231 211.021 273.33 210.241 273.33H208.171V278.154H206.434V265.257H210.241ZM227.893 265.257V278.154H226.147V272.286H219.19V278.154H217.444V265.257H219.19V271.008H226.147V265.257H227.893ZM243.306 271.71C243.306 272.676 243.153 273.564 242.847 274.374C242.541 275.178 242.109 275.871 241.551 276.453C240.993 277.035 240.321 277.488 239.535 277.812C238.755 278.13 237.891 278.289 236.943 278.289C235.995 278.289 235.131 278.13 234.351 277.812C233.571 277.488 232.902 277.035 232.344 276.453C231.786 275.871 231.354 275.178 231.048 274.374C230.742 273.564 230.589 272.676 230.589 271.71C230.589 270.744 230.742 269.859 231.048 269.055C231.354 268.245 231.786 267.549 232.344 266.967C232.902 266.379 233.571 265.923 234.351 265.599C235.131 265.275 235.995 265.113 236.943 265.113C237.891 265.113 238.755 265.275 239.535 265.599C240.321 265.923 240.993 266.379 241.551 266.967C242.109 267.549 242.541 268.245 242.847 269.055C243.153 269.859 243.306 270.744 243.306 271.71ZM241.515 271.71C241.515 270.918 241.407 270.207 241.191 269.577C240.975 268.947 240.669 268.416 240.273 267.984C239.877 267.546 239.397 267.21 238.833 266.976C238.269 266.742 237.639 266.625 236.943 266.625C236.253 266.625 235.626 266.742 235.062 266.976C234.498 267.21 234.015 267.546 233.613 267.984C233.217 268.416 232.911 268.947 232.695 269.577C232.479 270.207 232.371 270.918 232.371 271.71C232.371 272.502 232.479 273.213 232.695 273.843C232.911 274.467 233.217 274.998 233.613 275.436C234.015 275.868 234.498 276.201 235.062 276.435C235.626 276.663 236.253 276.777 236.943 276.777C237.639 276.777 238.269 276.663 238.833 276.435C239.397 276.201 239.877 275.868 240.273 275.436C240.669 274.998 240.975 274.467 241.191 273.843C241.407 273.213 241.515 272.502 241.515 271.71ZM254.145 266.724H249.969V278.154H248.232V266.724H244.047V265.257H254.145V266.724ZM267.595 271.71C267.595 272.676 267.442 273.564 267.136 274.374C266.83 275.178 266.398 275.871 265.84 276.453C265.282 277.035 264.61 277.488 263.824 277.812C263.044 278.13 262.18 278.289 261.232 278.289C260.284 278.289 259.42 278.13 258.64 277.812C257.86 277.488 257.191 277.035 256.633 276.453C256.075 275.871 255.643 275.178 255.337 274.374C255.031 273.564 254.878 272.676 254.878 271.71C254.878 270.744 255.031 269.859 255.337 269.055C255.643 268.245 256.075 267.549 256.633 266.967C257.191 266.379 257.86 265.923 258.64 265.599C259.42 265.275 260.284 265.113 261.232 265.113C262.18 265.113 263.044 265.275 263.824 265.599C264.61 265.923 265.282 266.379 265.84 266.967C266.398 267.549 266.83 268.245 267.136 269.055C267.442 269.859 267.595 270.744 267.595 271.71ZM265.804 271.71C265.804 270.918 265.696 270.207 265.48 269.577C265.264 268.947 264.958 268.416 264.562 267.984C264.166 267.546 263.686 267.21 263.122 266.976C262.558 266.742 261.928 266.625 261.232 266.625C260.542 266.625 259.915 266.742 259.351 266.976C258.787 267.21 258.304 267.546 257.902 267.984C257.506 268.416 257.2 268.947 256.984 269.577C256.768 270.207 256.66 270.918 256.66 271.71C256.66 272.502 256.768 273.213 256.984 273.843C257.2 274.467 257.506 274.998 257.902 275.436C258.304 275.868 258.787 276.201 259.351 276.435C259.915 276.663 260.542 276.777 261.232 276.777C261.928 276.777 262.558 276.663 263.122 276.435C263.686 276.201 264.166 275.868 264.562 275.436C264.958 274.998 265.264 274.467 265.48 273.843C265.696 273.213 265.804 272.502 265.804 271.71Z" fill="white"/>
</svg>
