<svg width="152" height="148" viewBox="0 0 152 148" fill="none" xmlns="http://www.w3.org/2000/svg">
<g clip-path="url(#clip0)">
<path d="M22.2334 63.3094C22.2334 63.3094 28.0803 48.4453 33.7854 54.9227L42.1859 60.6503L39.6678 70.0582C39.6678 70.0582 30.4262 61.0598 22.2334 63.3094Z" fill="#221122"/>
<path d="M85.4495 87.4434L77.89 97.5666L65.2892 81.4642L55.5561 96.7132L44.9719 83.4573L28.2721 96.797L25.4348 86.368L29.0575 79.1604L35.5175 70.4185L34.7321 66.8912L41.1921 70.5714C41.1921 70.5714 40.2447 60.1424 43.3961 60.4482C43.3961 60.4482 23.7071 58.3368 45.1289 35.6188C45.1289 35.6188 69.8695 23.4926 76.0052 57.6856C82.141 91.8785 85.4495 87.4434 85.4495 87.4434Z" fill="#221122"/>
<path d="M67.336 81.4591L76.7853 96.6439L94.5845 76.7034C94.5845 76.7034 108.133 104.157 85.4493 131.305C85.4493 131.305 54.1018 160.753 26.8533 131.305C26.8533 131.305 8.73997 109.525 12.8338 92.8107L23.7018 83.2992L29.0573 96.6439L44.9666 83.4522L54.416 98.1782L67.336 81.4591Z" fill="#221122"/>
<path d="M67.1802 24.045C67.1802 24.045 111.498 -10.9027 132.287 9.3338C132.287 9.3338 149.721 31.2033 132.287 59.0174L109.816 63.3143L108.975 47.355L94.6922 50.9859L91.7535 51.6618L95.5332 35.7123L74.9524 36.1119L79.9938 23.8427L67.1802 24.045Z" fill="#221122"/>
<path d="M84.8209 89.2587C84.8209 89.2587 95.1113 119.954 53.9446 144.394C53.9446 144.394 101.668 147.97 98.5971 88.2572C98.5971 88.2572 96.5806 69.6487 89.4366 81.7156L84.8209 89.2587Z" fill="#221122"/>
<path d="M110.292 61.2522C110.292 61.2522 135.964 38.8894 132.291 9.32886C132.291 9.32886 144.684 18.421 139.329 40.8134C139.329 40.8134 138.543 51.8542 132.291 59.0125C128.846 62.9591 119.574 61.9429 110.292 61.2522Z" fill="#221122"/>
<path d="M132.838 6.77349C116.903 -6.71424 82.6118 4.91362 64.8329 23.532C64.8228 23.5419 64.8228 23.5567 64.8126 23.5666C64.7062 23.68 64.6404 23.8231 64.5644 23.9563C64.5137 24.0451 64.4428 24.124 64.4073 24.2227C64.3718 24.3164 64.3769 24.425 64.3566 24.5236C64.3262 24.6766 64.2908 24.8246 64.2958 24.9775C64.2958 24.9923 64.2908 25.0022 64.2908 25.017C64.2958 25.1058 64.3465 25.1798 64.3617 25.2636C64.3972 25.4215 64.4225 25.5794 64.4985 25.7274C64.5441 25.8162 64.615 25.8852 64.6758 25.9691C64.7569 26.0826 64.8177 26.2108 64.9241 26.3095C64.9393 26.3243 64.9646 26.3292 64.9798 26.344C65.0406 26.3934 65.1116 26.418 65.1774 26.4624C65.3294 26.566 65.4814 26.6696 65.6537 26.7288C65.7145 26.7486 65.7804 26.7436 65.8412 26.7584C66.0337 26.8028 66.2212 26.8423 66.4188 26.8275C66.4289 26.8275 66.439 26.8324 66.4492 26.8324L77.6414 26.0184L73.806 35.5644C73.5628 36.1712 73.6438 36.857 74.0238 37.3947C74.4089 37.9374 74.9814 38.2975 75.711 38.2383L92.6185 38.0212L90.1916 49.8662C90.0548 50.5568 90.298 51.2722 90.8452 51.731L91.894 52.619C92.4158 53.063 93.1302 53.211 93.799 53.0186L107.717 48.9387L105.974 63.3884C105.898 64.0002 106.126 64.6119 106.582 65.0411C106.962 65.3914 107.464 65.5838 107.976 65.5838C108.082 65.5838 108.198 65.5788 108.305 65.5591L132.762 61.6075C133.015 61.568 133.243 61.4694 133.451 61.351C133.466 61.3411 133.486 61.3411 133.501 61.3312C133.79 61.1536 134.003 60.8922 134.165 60.606C134.185 60.5666 134.231 60.5518 134.251 60.5123C143.001 42.6191 146.29 18.1695 132.838 6.77349ZM111.375 44.6911C110.853 44.2668 110.159 44.1287 109.501 44.3162L94.554 48.692L97.0721 36.4031C97.1886 35.821 97.0316 35.2191 96.6414 34.7652C96.2564 34.3163 95.6889 34.0598 95.091 34.0598C95.0809 34.0598 95.0708 34.0598 95.0657 34.0598L78.6548 34.2719L82.5662 24.5384C82.8196 23.9119 82.7233 23.2015 82.3078 22.6588C81.8924 22.1162 81.2438 21.83 80.5345 21.8695L71.6881 22.5158C88.9097 7.47895 117.313 -1.14944 130.178 9.74335C141.314 19.1808 139.044 40.9122 131.024 57.9124L110.281 61.2622L112.074 46.4375C112.161 45.7715 111.897 45.1203 111.375 44.6911Z" fill="#D33F49"/>
<path d="M55.308 47.6362C57.1241 47.6362 58.5963 46.4413 58.5963 44.9673C58.5963 43.4933 57.1241 42.2983 55.308 42.2983C53.492 42.2983 52.0198 43.4933 52.0198 44.9673C52.0198 46.4413 53.492 47.6362 55.308 47.6362Z" fill="#221122"/>
<path opacity="0.46" d="M56.7753 45.1286C56.9478 44.6332 56.4281 44.0139 55.6146 43.7453C54.8011 43.4767 54.0017 43.6606 53.8292 44.156C53.6567 44.6514 54.1763 45.2707 54.9899 45.5393C55.8034 45.8079 56.6028 45.624 56.7753 45.1286Z" fill="#221122"/>
<path d="M61.6162 33.8379C61.6162 33.8379 62.3509 71.055 83.7727 91.918C83.7727 91.918 75.6813 40.2808 61.6162 33.8379Z" fill="#221122"/>
<path d="M23.8342 63.3294C23.8342 63.3294 34.8745 59.0324 41.7956 60.1572C41.7905 60.1622 30.0662 61.7754 23.8342 63.3294Z" fill="#221122"/>
<path d="M97.7263 74.4589C97.6909 74.3799 97.6554 74.3059 97.6098 74.2319C97.5085 74.0691 97.3818 73.9359 97.2399 73.8126C97.2095 73.783 97.1943 73.7435 97.1589 73.7189C97.1386 73.7041 97.1082 73.6991 97.0879 73.6843C96.9309 73.5758 96.7637 73.4969 96.5813 73.4327C96.5053 73.4081 96.4343 73.3785 96.3583 73.3587C96.2114 73.3291 96.0594 73.3242 95.9023 73.3242C95.7757 73.3242 95.6591 73.3291 95.5375 73.3489C95.4869 73.3587 95.4362 73.3439 95.3855 73.3587C95.3095 73.3785 95.2538 73.4327 95.1829 73.4574C95.0511 73.5067 94.9295 73.5659 94.813 73.6399C94.7066 73.7139 94.6154 73.7929 94.5242 73.8817C94.4634 73.9409 94.3874 73.9705 94.3367 74.0395L85.6778 84.7794C82.1717 75.0459 80.6162 68.4353 79.2431 62.5547C78.8125 60.7245 78.4071 58.983 77.9663 57.2563C73.0263 37.9078 68.1015 33.675 59.5794 31.9237C43.8474 28.7022 35.1581 42.2097 32.5639 50.3546C25.4959 52.7917 20.9461 63.5167 20.4293 64.8191C20.3989 64.8931 20.409 64.9671 20.3887 65.0411C20.3533 65.1743 20.3229 65.3075 20.3178 65.4457C20.3127 65.5789 20.3279 65.7022 20.3482 65.8305C20.3583 65.9094 20.3431 65.9883 20.3685 66.0673C20.3837 66.1117 20.4141 66.1462 20.4343 66.1857C20.4799 66.309 20.5458 66.4175 20.6167 66.531C20.6877 66.6395 20.7485 66.7481 20.8346 66.8369C20.9157 66.9207 21.0069 66.9849 21.1031 67.0589C21.2197 67.1477 21.3362 67.2266 21.4679 67.2858C21.5085 67.3055 21.5338 67.3351 21.5743 67.3499C21.6554 67.3795 21.7365 67.3746 21.8175 67.3943C21.9391 67.4239 22.0557 67.4535 22.1874 67.4634C22.2279 67.4634 22.2685 67.4831 22.309 67.4831C22.3597 67.4831 22.4002 67.4437 22.4509 67.4387C22.5877 67.4289 22.7245 67.4437 22.8613 67.4091C26.6055 66.3583 31.3378 66.1166 32.2498 67.2759L32.5234 70.5911C32.8223 73.8373 29.6709 76.7529 29.5138 76.9058C28.1053 78.4253 26.793 80.3147 25.5719 82.4706C25.3186 81.9329 24.8373 81.4987 24.2191 81.3507C23.5655 81.1731 22.8714 81.3606 22.3749 81.7997L11.137 91.7847C10.5898 92.0955 10.2402 92.6777 10.1794 93.3338C10.1743 93.3733 10.1591 93.4078 10.1541 93.4473C10.1541 93.4522 10.149 93.4571 10.149 93.467C10.1287 94.1675 10.1135 94.873 10.1135 95.5637C10.1135 123.965 30.4967 147.078 55.5514 147.078C80.6061 147.078 100.989 123.965 100.989 95.5637C100.989 89.0763 99.905 81.8687 97.8631 74.7302C97.8378 74.6266 97.7719 74.5477 97.7263 74.4589ZM25.8303 62.831C27.4415 59.8611 29.8837 56.2499 32.5893 54.6022C33.557 57.8039 36.5463 60.0486 39.4901 61.4003C38.4717 63.0135 38.1727 65.0609 38.2538 67.0687L35.5229 65.1151C33.5773 62.4413 29.2301 62.3623 25.8303 62.831ZM32.3765 79.6882C32.5589 79.5205 36.7591 75.6873 36.5666 70.7391L39.9359 73.1515C40.6402 73.6547 41.6029 73.6547 42.3122 73.1565C43.0215 72.6533 43.3205 71.7653 43.0418 70.9513C43.0165 70.8773 40.777 63.7881 44.0855 62.5301C44.9013 62.2242 45.4181 61.4398 45.3674 60.5913C45.3167 59.7427 44.7138 59.0225 43.8677 58.8054C43.7815 58.7857 35.3962 56.5607 36.3183 51.7261C36.5565 50.9318 42.3578 32.4219 58.7333 35.7766C64.8386 37.0247 69.201 39.2645 74.0397 58.2134C74.4703 59.9105 74.8757 61.6322 75.2962 63.4329C76.801 69.8758 78.5237 77.187 82.7239 88.435L77.9866 94.3106L67.9343 79.9842C67.5543 79.4366 66.921 79.0765 66.2319 79.1258C65.553 79.1406 64.9247 79.4859 64.565 80.0434L54.8015 95.1098L47.2775 82.2831C46.9786 81.7651 46.4517 81.4149 45.8487 81.3211C45.2559 81.2027 44.6378 81.4001 44.1818 81.7947L29.8938 94.2267L27.4618 87.5865C28.9615 84.2959 30.6893 81.5135 32.3765 79.6882ZM55.5514 143.146C32.721 143.146 14.1466 121.804 14.1466 95.5587C14.1466 95.1789 14.1567 94.7941 14.1669 94.4093L22.8511 86.6935L23.3831 88.1489C23.3933 88.1735 23.4135 88.1883 23.4237 88.213C23.4287 88.2327 23.4237 88.2574 23.4338 88.2771L23.4389 88.2821C23.4389 88.287 23.4389 88.2919 23.4389 88.2919L27.1071 98.2918C27.3301 98.9035 27.857 99.3722 28.5055 99.535C28.6727 99.5745 28.8399 99.5991 29.0021 99.5991C29.4935 99.5991 29.9698 99.4215 30.3447 99.0959L45.0178 86.3334L52.2175 98.6026C52.5773 99.2143 53.2461 99.5942 53.9655 99.5942H55.5514C56.2455 99.5942 56.889 99.2489 57.2589 98.6766L66.3434 84.661L76.2133 98.7309C76.573 99.2489 77.1658 99.5646 77.8093 99.5843C78.4882 99.757 79.0658 99.3278 79.461 98.8345L94.9498 79.6191C96.2469 85.1297 96.9562 90.5711 96.9562 95.5489C96.9562 121.804 78.3818 143.146 55.5514 143.146Z" fill="#D33F49"/>
<path opacity="0.27" d="M67.789 67.0489C68.7594 64.2623 65.8512 60.7834 61.2933 59.2787C56.7354 57.7739 52.2538 58.813 51.2834 61.5996C50.313 64.3863 53.2213 67.8651 57.7792 69.3699C62.337 70.8747 66.8186 69.8355 67.789 67.0489Z" fill="#221122"/>
<path d="M55.2016 53.1072C58.4646 53.1072 61.1144 50.532 61.1144 47.35C61.1144 44.168 58.4696 41.5928 55.2016 41.5928C51.9387 41.5928 49.2888 44.168 49.2888 47.35C49.2888 50.527 51.9387 53.1072 55.2016 53.1072ZM55.8856 42.9988C57.3448 43.3392 58.3126 44.5034 58.0389 45.5888C57.7704 46.679 56.367 47.2809 54.9078 46.9405C53.4486 46.6001 52.4808 45.4358 52.7544 44.3505C53.023 43.2602 54.4264 42.6534 55.8856 42.9988Z" fill="#D33F49"/>
</g>
<defs>
<clipPath id="clip0">
<rect width="152" height="148" fill="white"/>
</clipPath>
</defs>
</svg>
