<svg width="73" height="139" viewBox="0 0 73 139" fill="none" xmlns="http://www.w3.org/2000/svg">
<path d="M40.5723 26.372C48.3087 26.372 54.5803 20.4685 54.5803 13.186C54.5803 5.90358 48.3087 0 40.5723 0C32.8358 0 26.5642 5.90358 26.5642 13.186C26.5642 20.4685 32.8358 26.372 40.5723 26.372Z" fill="#FFFFFF"/>
<path d="M13.2672 95.6115L23.734 88.9376V131.754C23.734 135.757 27.1812 138.999 31.431 138.999C35.6819 138.999 39.1292 135.757 39.1292 131.754V78.8512H42.0148V131.754C42.0148 135.757 45.462 138.999 49.7118 138.999C53.9627 138.999 57.41 135.757 57.41 131.754V43.9926C58.2953 45.7437 59.1843 48.1301 59.9159 51.3404C60.1487 52.3637 60.3679 53.4602 60.5627 54.6574C60.564 54.6639 60.5658 54.6692 60.5671 54.6756C61.2326 58.7393 61.6522 63.8203 61.651 70.1132C61.6522 73.3441 61.5427 76.8938 61.2986 80.7921C61.1548 83.1141 62.8333 85.1353 65.1655 85.6335V86.8296V88.0298H62.6228C61.2476 88.0298 60.1325 89.0794 60.1325 90.374V114.207C60.1325 115.502 61.2476 116.551 62.6228 116.551H70.5084C71.8837 116.551 72.9988 115.502 72.9988 114.207V90.374C72.9988 89.0794 71.8837 88.0298 70.5084 88.0298H67.9671V86.7042V85.4711C69.78 84.8511 71.1229 83.2688 71.2431 81.3419C71.4971 77.277 71.6129 73.5445 71.6129 70.1138C71.6129 63.4206 71.169 57.8684 70.4088 53.2275V53.2287C70.4082 53.2275 70.4076 53.2263 70.4076 53.2251C70.2003 51.964 69.9687 50.7696 69.7165 49.6356C67.9808 41.8424 65.2252 36.9659 62.055 33.8745C58.436 30.3108 54.3618 29.6175 52.5937 29.6632C52.1977 29.6632 51.8995 29.6884 51.7121 29.7101C51.7084 29.7107 51.7059 29.7113 51.7022 29.7118H29.4393C29.4362 29.7113 29.4325 29.7107 29.4287 29.7101C29.242 29.6884 28.945 29.6632 28.5484 29.6632C26.779 29.6175 22.7067 30.3102 19.0871 33.8757C15.9169 36.9665 13.1613 41.843 11.4256 49.6368C11.1734 50.7714 10.9418 51.9663 10.7345 53.2281C10.7333 53.2328 10.7333 53.2369 10.7327 53.2416C9.97311 57.8795 9.53046 63.427 9.53046 70.1144C9.53046 73.5451 9.64563 77.2782 9.90027 81.3424C10.0547 83.8331 12.2499 85.7559 14.8685 85.7559C14.9656 85.7559 15.0639 85.7536 15.1642 85.7477C17.9098 85.5965 20.0047 83.3772 19.8447 80.7927C19.6001 76.8949 19.4911 73.3447 19.4924 70.1138C19.4911 63.8132 19.9126 58.7275 20.5781 54.6615C20.5788 54.6604 20.5794 54.6592 20.5794 54.658C20.7749 53.4607 20.9934 52.3619 21.2262 51.3393C21.9584 48.1254 22.8481 45.7361 23.7346 43.985V62.041L20.8894 63.8548C20.8527 64.5686 20.8241 65.2965 20.8004 66.0355L23.4706 64.3331L34.6428 79.8597L13.7659 93.1694L2.59491 77.6421L8.33821 73.9805C8.3214 73.2726 8.30895 72.5729 8.30024 71.8801L0 77.1733L13.2672 95.6115ZM40.5723 72.3074L34.6578 65.2748L38.0639 41.6449C38.872 41.9297 39.7212 42.0786 40.5711 42.078H40.5723C40.5723 42.078 40.5748 42.078 40.576 42.078C41.4246 42.078 42.2726 41.9291 43.0788 41.6443L46.4874 65.2748L40.5723 72.3074ZM38.2059 34.5074H40.5723H42.9375L44.1204 38.9028L43.9405 39.17C42.9655 39.9354 41.7714 40.3187 40.5711 40.3198C39.3707 40.3187 38.1779 39.936 37.2041 39.173L37.023 38.9028L38.2059 34.5074Z" fill="#FFFFFF"/>
<path d="M22.0873 69.9646L21.0667 70.636L27.9176 79.8646L28.9382 79.1932L22.0873 69.9646Z" fill="#FFFFFF"/>
<path d="M24.5757 81.9807L20.8956 77.0198C20.9274 77.743 20.9629 78.4738 21.004 79.2122L23.5553 82.6511L24.5757 81.9807Z" fill="#FFFFFF"/>
</svg>
