<svg width="164" height="136" viewBox="0 0 164 136" fill="none" xmlns="http://www.w3.org/2000/svg">
<path d="M24.9668 67.01C33.9598 78.6205 43.5741 89.7362 53.7676 100.308C67.6235 114.164 90.7904 138.389 99.044 130.135C99.8676 129.296 100.506 128.294 100.92 127.193C101.333 126.092 101.511 124.917 101.443 123.744C102.809 123.876 104.189 123.735 105.5 123.329C106.812 122.923 108.03 122.26 109.083 121.379C110.136 120.497 111.003 119.415 111.634 118.196C112.265 116.976 112.647 115.643 112.758 114.275C115.406 114.373 117.984 113.419 119.93 111.621C121.876 109.823 123.031 107.327 123.142 104.68C123.142 104.68 129.928 104.285 132.469 101.745C136.067 98.1464 135.783 93.8539 133.668 91.755C125.935 84.0537 102.91 61.2656 102.91 61.2656C91.7215 70.324 83.6099 61.6601 83.6099 61.6601C83.6099 61.6601 67.4815 82.0653 58.4388 69.819C49.3962 57.5728 98.7284 26.4521 98.7284 26.4521" stroke="#D33F49" stroke-width="6" stroke-miterlimit="10"/>
<path d="M101.443 123.744L77.0764 99.3773" stroke="#D33F49" stroke-width="6" stroke-miterlimit="10"/>
<path d="M112.758 114.291L87.4606 88.9933" stroke="#D33F49" stroke-width="6" stroke-miterlimit="10"/>
<path d="M123.142 104.696L97.4498 79.0037" stroke="#D33F49" stroke-width="6" stroke-miterlimit="10"/>
<path d="M130.338 88.4567C134.078 84.7165 141.748 74.6007 141.622 66.4734" stroke="#D33F49" stroke-width="6" stroke-miterlimit="10"/>
<path d="M41.5371 86.6418C37.2288 90.9501 29.0068 95.7792 37.9232 104.711L61.5951 128.383C69.9907 136.779 78.339 128.383 80.8166 125.937" stroke="#D33F49" stroke-width="6" stroke-miterlimit="10"/>
<path d="M40.4482 107.236L50.5798 97.1048" stroke="#D33F49" stroke-width="6" stroke-miterlimit="10"/>
<path d="M50.9111 117.684L61.0269 107.568" stroke="#D33F49" stroke-width="6" stroke-miterlimit="10"/>
<path d="M60.5693 127.342L70.6851 117.21" stroke="#D33F49" stroke-width="6" stroke-miterlimit="10"/>
<path d="M65.6191 24.9688C69.5329 27.8567 78.4177 32.8594 81.7002 37.4044" stroke="#D33F49" stroke-width="6" stroke-miterlimit="10"/>
<path d="M100.634 7.90796L90.7919 17.7502C89.3189 19.2232 89.3189 21.6113 90.7919 23.0842L141.119 73.4115C142.592 74.8844 144.98 74.8844 146.453 73.4115L156.295 63.5692C157.768 62.0962 157.768 59.7081 156.295 58.2352L105.968 7.90796C104.495 6.43501 102.107 6.43501 100.634 7.90796Z" fill="#D33F49" stroke="#D33F49" stroke-width="6" stroke-miterlimit="10"/>
<path d="M73.1974 17.2014L63.3551 7.35908C61.8822 5.88613 59.4941 5.88614 58.0211 7.35908L7.69387 57.6863C6.22092 59.1593 6.22092 61.5474 7.69387 63.0203L17.5361 72.8626C19.0091 74.3355 21.3972 74.3355 22.8702 72.8626L73.1974 22.5354C74.6703 21.0624 74.6703 18.6743 73.1974 17.2014Z" fill="#D33F49" stroke="#D33F49" stroke-width="6" stroke-miterlimit="10"/>
</svg>
