<svg width="54" height="54" viewBox="0 0 54 54" fill="none" xmlns="http://www.w3.org/2000/svg">
<g clip-path="url(#clip0)">
<path d="M11.1193 6.94134C14.0868 3.62818 18.0072 0.553568 27.6984 0.485958C31.4848 0.455723 37.2648 1.35133 41.7621 6.10692C44.4834 8.9787 46.4851 12.6071 45.9161 18.5375C45.7921 19.8245 43.9552 21.3131 45.2462 23.7966C45.2462 23.7966 48.0197 28.6774 47.922 29.4892C47.922 29.4892 47.9713 30.9738 45.674 31.0205C45.674 31.0205 45.1005 31.0947 45.2659 32.36L45.2933 34.2046C45.2933 34.2046 45.2202 34.7536 44.2154 35.0871C44.2154 35.0871 44.024 35.2785 44.3096 35.6399C44.3096 35.6399 44.8381 36.2296 43.9278 37.5044C43.5907 37.9686 43.0427 38.554 43.3776 39.7558C43.3776 39.7558 43.8083 42.0719 42.8991 42.6266C42.8991 42.6266 41.8654 43.8534 37.7062 43.3399C36.2518 43.1613 33.5677 42.4576 31.9679 44.4669C31.9679 44.4669 28.1426 51.7362 27.8512 53.4557C27.8512 53.4557 21.3228 41.8329 13.354 40.0388C13.354 40.0388 15.2959 35.6611 11.3459 29.9918C11.3459 29.9918 6.3956 23.4612 6.24918 19.8738C6.2518 19.8735 4.94625 13.8286 11.1193 6.94134ZM34.7789 14.1311C35.0618 14.234 35.2503 14.5032 35.2532 14.803L35.2834 18.1814C40.9691 17.8473 40.9177 15.3434 40.4261 12.1604C40.0357 9.63243 38.069 7.55769 35.1725 6.235L35.2055 10.0188C35.2084 10.3185 35.0241 10.5892 34.7447 10.6978C34.4654 10.8075 34.1495 10.7294 33.9462 10.5049C33.382 9.87025 32.5904 9.50863 31.7638 9.50863C31.7546 9.50863 31.7476 9.50863 31.7391 9.50863C30.125 9.52339 28.8228 10.8504 28.8354 12.4671C28.8516 14.0747 30.165 15.3762 31.7679 15.3762C31.7779 15.3762 31.7862 15.3762 31.7938 15.3762C32.6275 15.3693 33.4248 14.9929 33.98 14.3442C34.1823 14.1114 34.5011 14.029 34.7789 14.1311ZM17.3292 23.1093C18.5536 22.9855 19.8015 22.6513 20.9442 22.1601C23.9246 20.8817 24.749 17.4841 29.432 17.964C31.1565 18.1414 32.5973 18.2144 33.8469 18.2173L33.8279 16.2925C33.2115 16.6239 32.5242 16.8068 31.815 16.8144C31.8024 16.8144 31.791 16.8144 31.7805 16.8144C29.3891 16.8144 27.4275 14.8775 27.4063 12.4783C27.3846 10.0664 29.3299 8.0881 31.7388 8.0662C32.4233 8.06905 33.1396 8.23213 33.7588 8.55304L33.7314 5.65864C31.3886 4.86779 28.5961 4.51045 25.5906 4.72638C22.4991 4.94373 19.6058 5.85909 17.1854 7.24368L17.2009 8.69302C17.8173 8.36021 18.5041 8.17713 19.2145 8.17166C21.5842 8.20332 23.5991 10.0967 23.6272 12.5071C23.6387 13.6772 23.1897 14.7782 22.3734 15.6126C21.5546 16.4449 20.4612 16.9094 19.2904 16.9177C18.5574 16.8987 17.8903 16.7539 17.2726 16.4309L17.3292 23.1093ZM15.8882 23.1474L15.8149 14.967C15.812 14.6673 15.9965 14.3966 16.2751 14.2887C16.5538 14.1804 16.8702 14.2564 17.0743 14.4816C17.6444 15.1213 18.4181 15.4469 19.2764 15.4757C20.0589 15.4703 20.7933 15.157 21.3409 14.6013C21.8922 14.0419 22.1908 13.3046 22.1836 12.5223C22.1653 10.9125 20.854 9.61148 19.2514 9.61148C19.2428 9.61148 19.233 9.61148 19.2245 9.61148C18.3774 9.61838 17.6009 9.98572 17.0366 10.6442C16.8426 10.8735 16.5246 10.9537 16.2429 10.8544C15.9601 10.7525 15.7716 10.4845 15.7687 10.1847L15.7489 8.16118C12.8955 10.2016 10.9493 12.9744 10.5834 16.0519C9.99062 21.0579 12.6517 22.9898 15.8882 23.1474Z" fill="white"/>
</g>
<defs>
<clipPath id="clip0">
<rect width="52.9705" height="52.9705" fill="white" transform="matrix(-1 0 0 1 53.5151 0.485229)"/>
</clipPath>
</defs>
</svg>
