<svg width="52" height="52" viewBox="0 0 52 52" fill="none" xmlns="http://www.w3.org/2000/svg">
<g clip-path="url(#clip0)">
<path d="M6.96036 2.66357H45.0991C48.6036 2.66357 51.4556 5.51551 51.4556 9.02003V42.9212C51.4556 46.4257 48.6036 49.2776 45.0991 49.2776H6.96036C3.45583 49.2776 0.603897 46.4257 0.603897 42.9212V9.02003C0.603897 5.51551 3.45583 2.66357 6.96036 2.66357ZM6.96036 45.04H45.0991C46.2666 45.04 47.2179 44.0907 47.2179 42.9212V13.2577H4.84154V42.9212C4.84154 44.0907 5.79289 45.04 6.96036 45.04Z" fill="white"/>
<path d="M36.6238 38.6836C37.1662 38.6836 37.7087 38.476 38.1218 38.0628C38.9503 37.2344 38.9503 35.8953 38.1218 35.0668L33.2634 30.2084L38.1218 25.3499C38.9503 24.5214 38.9503 23.1823 38.1218 22.3539C37.2934 21.5254 35.9543 21.5254 35.1258 22.3539L28.7694 28.7103C27.9409 29.5388 27.9409 30.8779 28.7694 31.7064L35.1258 38.0628C35.539 38.476 36.0814 38.6836 36.6238 38.6836Z" fill="white"/>
<path d="M15.4357 38.6835H23.911C25.0827 38.6835 26.0298 37.7343 26.0298 36.5647C26.0298 35.3951 25.0827 34.4459 23.911 34.4459H15.4357C14.264 34.4459 13.3169 35.3951 13.3169 36.5647C13.3169 37.7343 14.264 38.6835 15.4357 38.6835Z" fill="white"/>
</g>
<defs>
<clipPath id="clip0">
<rect width="50.8517" height="50.8517" fill="white" transform="matrix(-1 0 0 1 51.4556 0.5448)"/>
</clipPath>
</defs>
</svg>
