<svg width="54" height="54" viewBox="0 0 54 54" fill="none" xmlns="http://www.w3.org/2000/svg">
<path d="M3.85518 33.5918H50.2043V37.7301C50.2043 38.3887 49.9427 39.0202 49.4771 39.4859C49.0114 39.9515 48.3799 40.2131 47.7214 40.2131H6.33817C5.67963 40.2131 5.04808 39.9515 4.58243 39.4859C4.11678 39.0202 3.85518 38.3887 3.85518 37.7301V33.5918ZM27.0298 39.3855C27.5208 39.3855 28.0009 39.2398 28.4092 38.967C28.8176 38.6942 29.1358 38.3064 29.3237 37.8527C29.5117 37.3989 29.5608 36.8997 29.465 36.4181C29.3692 35.9364 29.1328 35.494 28.7855 35.1467C28.4382 34.7995 27.9958 34.563 27.5142 34.4672C27.0325 34.3714 26.5333 34.4205 26.0796 34.6085C25.6259 34.7964 25.2381 35.1147 24.9652 35.523C24.6924 35.9313 24.5468 36.4114 24.5468 36.9025C24.5468 37.561 24.8084 38.1925 25.274 38.6582C25.7397 39.1239 26.3712 39.3855 27.0298 39.3855Z" fill="white"/>
<path d="M27.0298 37.7302C26.5727 37.7302 26.2021 37.3596 26.2021 36.9025C26.2021 36.4454 26.5727 36.0748 27.0298 36.0748C27.4869 36.0748 27.8574 36.4454 27.8574 36.9025C27.8574 37.3596 27.4869 37.7302 27.0298 37.7302Z" fill="white"/>
<path d="M15.4424 49.3174C15.4424 49.0979 15.5296 48.8874 15.6848 48.7322C15.84 48.5769 16.0505 48.4897 16.27 48.4897H37.7893C38.0088 48.4897 38.2193 48.5769 38.3745 48.7322C38.5297 48.8874 38.6169 49.0979 38.6169 49.3174V50.1451H15.4424V49.3174Z" fill="white"/>
<path d="M3.85518 6.27889C3.85518 5.62036 4.11678 4.9888 4.58243 4.52315C5.04808 4.0575 5.67963 3.7959 6.33817 3.7959H47.7214C48.3799 3.7959 49.0114 4.0575 49.4771 4.52315C49.9427 4.9888 50.2043 5.62036 50.2043 6.27889V31.9365H3.85518V6.27889Z" fill="white"/>
<path d="M32.2498 41.8684L34.1121 46.8344H19.9474L21.8097 41.8684H32.2498Z" fill="white"/>
</svg>
