<svg width="54" height="54" viewBox="0 0 54 54" fill="none" xmlns="http://www.w3.org/2000/svg">
<g clip-path="url(#clip0)">
<path fill-rule="evenodd" clip-rule="evenodd" d="M0.720837 34.5766L4.27154 19.4879C5.22771 15.4232 8.97442 11.2437 14.68 11.2437H39.3793C43.5552 11.2437 48.4815 13.934 49.7881 19.4879L53.3388 34.5766C54.3026 38.6725 51.1937 42.6019 46.9806 42.6019C45.1903 42.6019 43.5063 41.6481 42.5861 40.1136L39.8509 35.5558C39.3833 34.7758 38.5282 34.2917 37.6189 34.2917H16.4412C15.5319 34.2917 14.6763 34.7762 14.2087 35.5562L11.474 40.1132C10.5534 41.6481 8.86935 42.6019 7.07702 42.6019C2.87041 42.6019 -0.243828 38.6765 0.720837 34.5766ZM33.6778 24.3193H35.4503V26.0919C35.4503 26.9486 36.145 27.6433 37.0022 27.6433C37.8589 27.6433 38.5536 26.9486 38.5536 26.0919V24.3193H40.3262C41.1829 24.3193 41.8776 23.6246 41.8776 22.7679C41.8776 21.9107 41.1829 21.216 40.3262 21.216H38.5536V19.4435C38.5536 18.5867 37.8589 17.892 37.0022 17.892C36.145 17.892 35.4503 18.5867 35.4503 19.4435V21.216H33.6778C32.821 21.216 32.1263 21.9107 32.1263 22.7679C32.1263 23.6246 32.821 24.3193 33.6778 24.3193ZM20.3818 24.3193C21.2382 24.3193 21.9333 23.6242 21.9333 22.7679C21.9333 21.9111 21.2378 21.216 20.3818 21.216C19.5251 21.216 18.83 21.9111 18.83 22.7679C18.83 23.6242 19.5251 24.3193 20.3818 24.3193ZM17.0575 27.6433C17.9138 27.6433 18.6093 26.9482 18.6093 26.0919C18.6093 25.2355 17.9138 24.54 17.0575 24.54C16.2011 24.54 15.506 25.2355 15.506 26.0919C15.506 26.9482 16.2011 27.6433 17.0575 27.6433ZM17.0575 20.9954C17.9138 20.9954 18.6093 20.3002 18.6093 19.4435C18.6093 18.5871 17.9138 17.892 17.0575 17.892C16.2011 17.892 15.506 18.5871 15.506 19.4435C15.506 20.3002 16.2011 20.9954 17.0575 20.9954ZM13.7335 24.3193C14.5898 24.3193 15.2853 23.6242 15.2853 22.7679C15.2853 21.9111 14.5898 21.216 13.7335 21.216C12.8771 21.216 12.182 21.9111 12.182 22.7679C12.182 23.6242 12.8771 24.3193 13.7335 24.3193Z" fill="white"/>
</g>
<defs>
<clipPath id="clip0">
<rect width="52.9704" height="52.9706" fill="white" transform="matrix(-1 0 0 1 53.5151 0.48407)"/>
</clipPath>
</defs>
</svg>
