<svg width="25" height="25" viewBox="0 0 25 25" fill="none" xmlns="http://www.w3.org/2000/svg">
<g clip-path="url(#clip0)">
<path d="M5.38115 3.90675C6.72402 2.40746 8.49812 1.01612 12.8836 0.985529C14.5971 0.971847 17.2127 1.37713 19.2478 3.52916C20.4793 4.82871 21.3851 6.47063 21.1276 9.15431C21.0715 9.7367 20.2402 10.4103 20.8244 11.5342C20.8244 11.5342 22.0795 13.7429 22.0353 14.1102C22.0353 14.1102 22.0576 14.782 21.018 14.8032C21.018 14.8032 20.7585 14.8368 20.8334 15.4094L20.8458 16.2441C20.8458 16.2441 20.8127 16.4925 20.358 16.6434C20.358 16.6434 20.2713 16.73 20.4006 16.8936C20.4006 16.8936 20.6398 17.1604 20.2278 17.7373C20.0753 17.9474 19.8273 18.2123 19.9789 18.7561C19.9789 18.7561 20.1737 19.8042 19.7623 20.0552C19.7623 20.0552 19.2946 20.6104 17.4124 20.378C16.7543 20.2972 15.5396 19.9788 14.8157 20.888C14.8157 20.888 13.0846 24.1776 12.9528 24.9557C12.9528 24.9557 9.99849 19.6961 6.39242 18.8842C6.39242 18.8842 7.27118 16.9032 5.48372 14.3377C5.48372 14.3377 3.24356 11.3824 3.17731 9.759C3.1785 9.75889 2.5877 7.0234 5.38115 3.90675ZM16.0877 7.16032C16.2157 7.20686 16.301 7.3287 16.3023 7.46434L16.316 8.99314C18.889 8.842 18.8657 7.70889 18.6432 6.26853C18.4665 5.12454 17.5766 4.18567 16.2658 3.58711L16.2808 5.29938C16.2821 5.43502 16.1987 5.55751 16.0722 5.60663C15.9459 5.65629 15.8029 5.62096 15.7109 5.51937C15.4556 5.23216 15.0974 5.06852 14.7233 5.06852C14.7191 5.06852 14.716 5.06852 14.7121 5.06852C13.9817 5.0752 13.3924 5.67569 13.3981 6.40729C13.4055 7.13479 13.9998 7.72375 14.7252 7.72375C14.7297 7.72375 14.7335 7.72375 14.7369 7.72375C15.1142 7.72063 15.475 7.55031 15.7262 7.25674C15.8178 7.15138 15.962 7.11411 16.0877 7.16032ZM8.19131 11.2232C8.74536 11.1671 9.31009 11.0159 9.82719 10.7936C11.1759 10.2151 11.5489 8.6776 13.6681 8.89478C14.4485 8.97504 15.1005 9.00812 15.666 9.00941L15.6574 8.13841C15.3784 8.28837 15.0674 8.37111 14.7465 8.37455C14.7408 8.37455 14.7356 8.37455 14.7309 8.37455C13.6487 8.37455 12.761 7.49806 12.7514 6.41235C12.7416 5.32093 13.6219 4.42569 14.712 4.41578C15.0217 4.41707 15.3459 4.49087 15.6261 4.63609L15.6137 3.3263C14.5535 2.96842 13.2899 2.80671 11.9298 2.90443C10.5308 3.00278 9.22153 3.41701 8.12624 4.04357L8.13324 4.69943C8.41215 4.54883 8.72296 4.46598 9.04443 4.4635C10.1168 4.47783 11.0286 5.33461 11.0413 6.42538C11.0465 6.95488 10.8433 7.45313 10.4739 7.83073C10.1034 8.20736 9.60861 8.41754 9.07879 8.42131C8.74709 8.41269 8.44523 8.34719 8.16567 8.201L8.19131 11.2232ZM7.53921 11.2404L7.50603 7.53856C7.50474 7.40293 7.58823 7.28044 7.71428 7.23164C7.84043 7.18262 7.9836 7.21699 8.07593 7.3189C8.33394 7.60837 8.68407 7.75575 9.07243 7.76878C9.42655 7.76631 9.75889 7.62453 10.0067 7.37309C10.2562 7.11992 10.3913 6.78628 10.388 6.43228C10.3797 5.7038 9.78637 5.11506 9.06112 5.11506C9.05725 5.11506 9.05283 5.11506 9.04895 5.11506C8.66564 5.11818 8.31423 5.28441 8.0589 5.58239C7.9711 5.68614 7.82718 5.72244 7.69973 5.67752C7.57175 5.63141 7.48643 5.5101 7.48513 5.37447L7.47619 4.45876C6.18493 5.38212 5.30424 6.63686 5.13865 8.02949C4.87041 10.2949 6.07462 11.1691 7.53921 11.2404Z" fill="#D33F49"/>
</g>
<defs>
<clipPath id="clip0">
<rect width="23.9705" height="23.9705" fill="white" transform="matrix(-1 0 0 1 24.5663 0.985214)"/>
</clipPath>
</defs>
</svg>
