<svg width="24" height="24" viewBox="0 0 24 24" fill="none" xmlns="http://www.w3.org/2000/svg">
<g clip-path="url(#clip0)">
<path d="M3.32442 1.49438H20.5832C22.1691 1.49438 23.4596 2.78496 23.4596 4.37084V19.712C23.4596 21.2978 22.1691 22.5884 20.5832 22.5884H3.32442C1.73853 22.5884 0.447962 21.2978 0.447962 19.712V4.37084C0.447962 2.78496 1.73853 1.49438 3.32442 1.49438ZM3.32442 20.6708H20.5832C21.1115 20.6708 21.542 20.2412 21.542 19.712V6.28848H2.3656V19.712C2.3656 20.2412 2.79611 20.6708 3.32442 20.6708Z" fill="#FFFFFF"/>
<path d="M16.7479 17.7943C16.9933 17.7943 17.2388 17.7003 17.4258 17.5134C17.8007 17.1385 17.8007 16.5325 17.4258 16.1576L15.2272 13.959L17.4258 11.7604C17.8007 11.3856 17.8007 10.7796 17.4258 10.4047C17.0509 10.0298 16.4449 10.0298 16.07 10.4047L13.1935 13.2811C12.8186 13.656 12.8186 14.262 13.1935 14.6369L16.07 17.5134C16.257 17.7003 16.5024 17.7943 16.7479 17.7943Z" fill="#FFFFFF"/>
<path d="M7.15973 17.7943H10.995C11.5252 17.7943 11.9538 17.3647 11.9538 16.8355C11.9538 16.3062 11.5252 15.8766 10.995 15.8766H7.15973C6.6295 15.8766 6.20091 16.3062 6.20091 16.8355C6.20091 17.3647 6.6295 17.7943 7.15973 17.7943Z" fill="#FFFFFF"/>
</g>
<defs>
<clipPath id="clip0">
<rect width="23.0117" height="23.0117" fill="white" transform="matrix(-1 0 0 1 23.4596 0.535553)"/>
</clipPath>
</defs>
</svg>
