<svg width="25" height="25" viewBox="0 0 25 25" fill="none" xmlns="http://www.w3.org/2000/svg">
<path d="M2.46668 15.0731H23.4409V16.9458C23.4409 17.2438 23.3225 17.5296 23.1118 17.7403C22.901 17.951 22.6152 18.0694 22.3172 18.0694H3.5903C3.2923 18.0694 3.0065 17.951 2.79578 17.7403C2.58506 17.5296 2.46668 17.2438 2.46668 16.9458V15.0731ZM12.9538 17.6948C13.176 17.6948 13.3932 17.6289 13.578 17.5055C13.7628 17.382 13.9068 17.2065 13.9919 17.0012C14.0769 16.7959 14.0992 16.57 14.0558 16.352C14.0124 16.134 13.9054 15.9338 13.7483 15.7767C13.5911 15.6196 13.3909 15.5125 13.173 15.4692C12.955 15.4258 12.7291 15.4481 12.5238 15.5331C12.3185 15.6182 12.143 15.7622 12.0195 15.947C11.8961 16.1317 11.8302 16.349 11.8302 16.5712C11.8302 16.8692 11.9485 17.155 12.1593 17.3657C12.37 17.5765 12.6558 17.6948 12.9538 17.6948Z" fill="#D33F49"/>
<path d="M12.9538 16.9457C12.7469 16.9457 12.5792 16.778 12.5792 16.5712C12.5792 16.3643 12.7469 16.1967 12.9538 16.1967C13.1606 16.1967 13.3283 16.3643 13.3283 16.5712C13.3283 16.778 13.1606 16.9457 12.9538 16.9457Z" fill="#D33F49"/>
<path d="M7.71015 22.1893C7.71015 22.09 7.74961 21.9947 7.81985 21.9245C7.89009 21.8542 7.98536 21.8148 8.08469 21.8148H17.8227C17.922 21.8148 18.0173 21.8542 18.0875 21.9245C18.1578 21.9947 18.1972 22.09 18.1972 22.1893V22.5638H7.71015V22.1893Z" fill="#D33F49"/>
<path d="M2.46668 2.71328C2.46668 2.41528 2.58506 2.12948 2.79578 1.91876C3.0065 1.70804 3.2923 1.58966 3.5903 1.58966H22.3172C22.6152 1.58966 22.901 1.70804 23.1118 1.91876C23.3225 2.12948 23.4409 2.41528 23.4409 2.71328V14.324H2.46668V2.71328Z" fill="#D33F49"/>
<path d="M15.3159 18.8185L16.1587 21.0657H9.74881L10.5915 18.8185H15.3159Z" fill="#D33F49"/>
</svg>
