<svg width="25" height="24" viewBox="0 0 25 24" fill="none" xmlns="http://www.w3.org/2000/svg">
<g clip-path="url(#clip0)">
<path fill-rule="evenodd" clip-rule="evenodd" d="M1.04827 15.4479L2.65506 8.61986C3.08775 6.78045 4.78324 4.8891 7.36514 4.8891H18.5422C20.4319 4.8891 22.6612 6.10653 23.2525 8.61986L24.8593 15.4479C25.2955 17.3014 23.8886 19.0795 21.982 19.0795C21.1719 19.0795 20.4098 18.6479 19.9934 17.9535L18.7557 15.891C18.5441 15.538 18.1571 15.3189 17.7456 15.3189H8.16213C7.75065 15.3189 7.36349 15.5382 7.1519 15.8912L5.91435 17.9533C5.49775 18.6479 4.73569 19.0795 3.92461 19.0795C2.02101 19.0795 0.611738 17.3032 1.04827 15.4479ZM15.9622 10.8062H16.7643V11.6083C16.7643 11.996 17.0786 12.3104 17.4665 12.3104C17.8542 12.3104 18.1686 11.996 18.1686 11.6083V10.8062H18.9707C19.3584 10.8062 19.6728 10.4918 19.6728 10.1041C19.6728 9.71622 19.3584 9.40185 18.9707 9.40185H18.1686V8.59974C18.1686 8.21203 17.8542 7.89766 17.4665 7.89766C17.0786 7.89766 16.7643 8.21203 16.7643 8.59974V9.40185H15.9622C15.5745 9.40185 15.2601 9.71622 15.2601 10.1041C15.2601 10.4918 15.5745 10.8062 15.9622 10.8062ZM9.9454 10.8062C10.3329 10.8062 10.6475 10.4916 10.6475 10.1041C10.6475 9.71641 10.3327 9.40185 9.9454 9.40185C9.55769 9.40185 9.24314 9.71641 9.24314 10.1041C9.24314 10.4916 9.55769 10.8062 9.9454 10.8062ZM8.44102 12.3104C8.82855 12.3104 9.14329 11.9958 9.14329 11.6083C9.14329 11.2208 8.82855 10.906 8.44102 10.906C8.0535 10.906 7.73895 11.2208 7.73895 11.6083C7.73895 11.9958 8.0535 12.3104 8.44102 12.3104ZM8.44102 9.302C8.82855 9.302 9.14329 8.98745 9.14329 8.59974C9.14329 8.21222 8.82855 7.89766 8.44102 7.89766C8.0535 7.89766 7.73895 8.21222 7.73895 8.59974C7.73895 8.98745 8.0535 9.302 8.44102 9.302ZM6.93683 10.8062C7.32436 10.8062 7.6391 10.4916 7.6391 10.1041C7.6391 9.71641 7.32436 9.40185 6.93683 9.40185C6.54931 9.40185 6.23476 9.71641 6.23476 10.1041C6.23476 10.4916 6.54931 10.8062 6.93683 10.8062Z" fill="#FFFFFF"/>
</g>
<defs>
<clipPath id="clip0">
<rect width="23.9705" height="23.9706" fill="white" transform="matrix(-1 0 0 1 24.939 0.0201111)"/>
</clipPath>
</defs>
</svg>
