<svg width="440" height="475" viewBox="0 0 440 475" fill="none" xmlns="http://www.w3.org/2000/svg">
<g opacity="0.7">
<mask id="mask0" mask-type="alpha" maskUnits="userSpaceOnUse" x="0" y="0" width="440" height="475">
<rect width="440" height="475" fill="white"/>
</mask>
<g mask="url(#mask0)">
<rect opacity="0.02" width="440" height="475" fill="#F2F2F2"/>
<g opacity="0.06">
<path d="M0 0L440 475" stroke="#F2F2F2"/>
<path d="M17.1875 -18.5547L457.188 456.445" stroke="#F2F2F2"/>
<path d="M34.375 -37.1094L474.375 437.891" stroke="#F2F2F2"/>
<path d="M51.5625 -55.6641L491.562 419.336" stroke="#F2F2F2"/>
<path d="M68.75 -74.2188L508.75 400.781" stroke="#F2F2F2"/>
<path d="M85.9375 -92.7734L525.938 382.227" stroke="#F2F2F2"/>
<path d="M103.125 -111.328L543.125 363.672" stroke="#F2F2F2"/>
<path d="M120.312 -129.883L560.312 345.117" stroke="#F2F2F2"/>
<path d="M137.5 -148.438L577.5 326.562" stroke="#F2F2F2"/>
<path d="M154.688 -166.992L594.688 308.008" stroke="#F2F2F2"/>
<path d="M171.875 -185.547L611.875 289.453" stroke="#F2F2F2"/>
<path d="M189.062 -204.102L629.062 270.898" stroke="#F2F2F2"/>
<path d="M206.25 -222.656L646.25 252.344" stroke="#F2F2F2"/>
<path d="M-17.1875 18.5547L422.812 493.555" stroke="#F2F2F2"/>
<path d="M-34.375 37.1094L405.625 512.109" stroke="#F2F2F2"/>
<path d="M-51.5625 55.6641L388.438 530.664" stroke="#F2F2F2"/>
<path d="M-68.75 74.2188L371.25 549.219" stroke="#F2F2F2"/>
<path d="M-85.9375 92.7734L354.062 567.773" stroke="#F2F2F2"/>
<path d="M-103.125 111.328L336.875 586.328" stroke="#F2F2F2"/>
<path d="M-120.312 129.883L319.688 604.883" stroke="#F2F2F2"/>
<path d="M-137.5 148.438L302.5 623.438" stroke="#F2F2F2"/>
<path d="M-154.688 166.992L285.312 641.992" stroke="#F2F2F2"/>
<path d="M-171.875 185.547L268.125 660.547" stroke="#F2F2F2"/>
<path d="M-189.062 204.102L250.938 679.102" stroke="#F2F2F2"/>
<path d="M-206.25 222.656L233.75 697.656" stroke="#F2F2F2"/>
<path d="M-223.438 241.211L216.562 716.211" stroke="#F2F2F2"/>
</g>
<g opacity="0.06">
<path d="M8.59375 -9.27734L448.594 465.723" stroke="#F2F2F2"/>
<path d="M25.7812 -27.832L465.781 447.168" stroke="#F2F2F2"/>
<path d="M42.9688 -46.3867L482.969 428.613" stroke="#F2F2F2"/>
<path d="M60.1562 -64.9414L500.156 410.059" stroke="#F2F2F2"/>
<path d="M77.3438 -83.4961L517.344 391.504" stroke="#F2F2F2"/>
<path d="M94.5312 -102.051L534.531 372.949" stroke="#F2F2F2"/>
<path d="M111.719 -120.605L551.719 354.395" stroke="#F2F2F2"/>
<path d="M128.906 -139.16L568.906 335.84" stroke="#F2F2F2"/>
<path d="M146.094 -157.715L586.094 317.285" stroke="#F2F2F2"/>
<path d="M163.281 -176.27L603.281 298.73" stroke="#F2F2F2"/>
<path d="M180.469 -194.824L620.469 280.176" stroke="#F2F2F2"/>
<path d="M197.656 -213.379L637.656 261.621" stroke="#F2F2F2"/>
<path d="M214.844 -231.934L654.844 243.066" stroke="#F2F2F2"/>
<path d="M-8.59375 9.27734L431.406 484.277" stroke="#F2F2F2"/>
<path d="M-25.7812 27.832L414.219 502.832" stroke="#F2F2F2"/>
<path d="M-42.9688 46.3867L397.031 521.387" stroke="#F2F2F2"/>
<path d="M-60.1562 64.9414L379.844 539.941" stroke="#F2F2F2"/>
<path d="M-77.3438 83.4961L362.656 558.496" stroke="#F2F2F2"/>
<path d="M-94.5312 102.051L345.469 577.051" stroke="#F2F2F2"/>
<path d="M-111.719 120.605L328.281 595.605" stroke="#F2F2F2"/>
<path d="M-128.906 139.16L311.094 614.16" stroke="#F2F2F2"/>
<path d="M-146.094 157.715L293.906 632.715" stroke="#F2F2F2"/>
<path d="M-163.281 176.27L276.719 651.27" stroke="#F2F2F2"/>
<path d="M-180.469 194.824L259.531 669.824" stroke="#F2F2F2"/>
<path d="M-197.656 213.379L242.344 688.379" stroke="#F2F2F2"/>
<path d="M-214.844 231.934L225.156 706.934" stroke="#F2F2F2"/>
</g>
</g>
<g opacity="0.5">
<path d="M231.667 223H208.333C206.492 223 205 224.492 205 226.333V249.667C205 251.508 206.492 253 208.333 253H231.667C233.508 253 235 251.508 235 249.667V226.333C235 224.492 233.508 223 231.667 223Z" stroke="#F2F2F2" stroke-width="1.5" stroke-linecap="round" stroke-linejoin="round"/>
<path d="M214.167 234.667C215.547 234.667 216.667 233.547 216.667 232.167C216.667 230.786 215.547 229.667 214.167 229.667C212.786 229.667 211.667 230.786 211.667 232.167C211.667 233.547 212.786 234.667 214.167 234.667Z" stroke="#F2F2F2" stroke-width="1.5" stroke-linecap="round" stroke-linejoin="round"/>
<path d="M235 243L226.667 234.667L208.333 253" stroke="#F2F2F2" stroke-width="1.5" stroke-linecap="round" stroke-linejoin="round"/>
</g>
</g>
<path d="M85.5081 231.684C85.6041 231.684 85.6881 231.723 85.7601 231.801L86.4531 232.548C85.9251 233.16 85.2831 233.637 84.5271 233.979C83.7771 234.321 82.8681 234.492 81.8001 234.492C80.8761 234.492 80.0361 234.333 79.2801 234.015C78.5241 233.691 77.8791 233.241 77.3451 232.665C76.8111 232.083 76.3971 231.387 76.1031 230.577C75.8091 229.767 75.6621 228.876 75.6621 227.904C75.6621 226.932 75.8151 226.041 76.1211 225.231C76.4271 224.421 76.8561 223.725 77.4081 223.143C77.9661 222.561 78.6321 222.111 79.4061 221.793C80.1801 221.469 81.0351 221.307 81.9711 221.307C82.8891 221.307 83.6991 221.454 84.4011 221.748C85.1031 222.042 85.7211 222.441 86.2551 222.945L85.6791 223.746C85.6431 223.806 85.5951 223.857 85.5351 223.899C85.4811 223.935 85.4061 223.953 85.3101 223.953C85.2021 223.953 85.0701 223.896 84.9141 223.782C84.7581 223.662 84.5541 223.53 84.3021 223.386C84.0501 223.242 83.7351 223.113 83.3571 222.999C82.9791 222.879 82.5141 222.819 81.9621 222.819C81.2961 222.819 80.6871 222.936 80.1351 223.17C79.5831 223.398 79.1061 223.731 78.7041 224.169C78.3081 224.607 77.9991 225.141 77.7771 225.771C77.5551 226.401 77.4441 227.112 77.4441 227.904C77.4441 228.708 77.5581 229.425 77.7861 230.055C78.0201 230.685 78.3351 231.219 78.7311 231.657C79.1331 232.089 79.6041 232.419 80.1441 232.647C80.6901 232.875 81.2781 232.989 81.9081 232.989C82.2921 232.989 82.6371 232.968 82.9431 232.926C83.2551 232.878 83.5401 232.806 83.7981 232.71C84.0621 232.614 84.3051 232.494 84.5271 232.35C84.7551 232.2 84.9801 232.023 85.2021 231.819C85.3041 231.729 85.4061 231.684 85.5081 231.684ZM95.9945 232.881V234.348H88.6775V221.451H90.4145V232.881H95.9945ZM99.8696 234.348H98.1236V221.451H99.8696V234.348ZM112.423 231.684C112.519 231.684 112.603 231.723 112.675 231.801L113.368 232.548C112.84 233.16 112.198 233.637 111.442 233.979C110.692 234.321 109.783 234.492 108.715 234.492C107.791 234.492 106.951 234.333 106.195 234.015C105.439 233.691 104.794 233.241 104.26 232.665C103.726 232.083 103.312 231.387 103.018 230.577C102.724 229.767 102.577 228.876 102.577 227.904C102.577 226.932 102.73 226.041 103.036 225.231C103.342 224.421 103.771 223.725 104.323 223.143C104.881 222.561 105.547 222.111 106.321 221.793C107.095 221.469 107.95 221.307 108.886 221.307C109.804 221.307 110.614 221.454 111.316 221.748C112.018 222.042 112.636 222.441 113.17 222.945L112.594 223.746C112.558 223.806 112.51 223.857 112.45 223.899C112.396 223.935 112.321 223.953 112.225 223.953C112.117 223.953 111.985 223.896 111.829 223.782C111.673 223.662 111.469 223.53 111.217 223.386C110.965 223.242 110.65 223.113 110.272 222.999C109.894 222.879 109.429 222.819 108.877 222.819C108.211 222.819 107.602 222.936 107.05 223.17C106.498 223.398 106.021 223.731 105.619 224.169C105.223 224.607 104.914 225.141 104.692 225.771C104.47 226.401 104.359 227.112 104.359 227.904C104.359 228.708 104.473 229.425 104.701 230.055C104.935 230.685 105.25 231.219 105.646 231.657C106.048 232.089 106.519 232.419 107.059 232.647C107.605 232.875 108.193 232.989 108.823 232.989C109.207 232.989 109.552 232.968 109.858 232.926C110.17 232.878 110.455 232.806 110.713 232.71C110.977 232.614 111.22 232.494 111.442 232.35C111.67 232.2 111.895 232.023 112.117 231.819C112.219 231.729 112.321 231.684 112.423 231.684ZM117.329 227.103H117.986C118.214 227.103 118.397 227.076 118.535 227.022C118.673 226.962 118.799 226.863 118.913 226.725L123.206 221.865C123.326 221.709 123.452 221.601 123.584 221.541C123.716 221.481 123.878 221.451 124.07 221.451H125.546L120.632 227.004C120.512 227.148 120.395 227.268 120.281 227.364C120.173 227.454 120.056 227.529 119.93 227.589C120.092 227.643 120.239 227.724 120.371 227.832C120.503 227.934 120.632 228.069 120.758 228.237L125.888 234.348H124.376C124.262 234.348 124.163 234.342 124.079 234.33C124.001 234.312 123.932 234.288 123.872 234.258C123.812 234.222 123.758 234.183 123.71 234.141C123.668 234.093 123.626 234.039 123.584 233.979L119.138 228.858C119.018 228.708 118.889 228.603 118.751 228.543C118.613 228.477 118.403 228.444 118.121 228.444H117.329V234.348H115.592V221.451H117.329V227.103ZM142.964 221.451V234.348H141.218V228.48H134.261V234.348H132.515V221.451H134.261V227.202H141.218V221.451H142.964ZM154.417 232.926L154.408 234.348H146.461V221.451H154.408V222.873H148.207V227.157H153.229V228.525H148.207V232.926H154.417ZM160.623 227.697C161.127 227.697 161.571 227.637 161.955 227.517C162.345 227.391 162.669 227.217 162.927 226.995C163.191 226.767 163.389 226.497 163.521 226.185C163.653 225.873 163.719 225.528 163.719 225.15C163.719 224.382 163.467 223.803 162.963 223.413C162.459 223.023 161.703 222.828 160.695 222.828H158.787V227.697H160.623ZM166.581 234.348H165.033C164.715 234.348 164.481 234.225 164.331 233.979L160.983 229.371C160.881 229.227 160.77 229.125 160.65 229.065C160.536 228.999 160.356 228.966 160.11 228.966H158.787V234.348H157.05V221.451H160.695C161.511 221.451 162.216 221.535 162.81 221.703C163.404 221.865 163.893 222.102 164.277 222.414C164.667 222.726 164.955 223.104 165.141 223.548C165.327 223.986 165.42 224.478 165.42 225.024C165.42 225.48 165.348 225.906 165.204 226.302C165.06 226.698 164.85 227.055 164.574 227.373C164.304 227.685 163.971 227.952 163.575 228.174C163.185 228.396 162.741 228.564 162.243 228.678C162.465 228.804 162.657 228.987 162.819 229.227L166.581 234.348ZM176.491 232.926L176.482 234.348H168.535V221.451H176.482V222.873H170.281V227.157H175.303V228.525H170.281V232.926H176.491ZM192.106 222.918H187.93V234.348H186.193V222.918H182.008V221.451H192.106V222.918ZM205.555 227.904C205.555 228.87 205.402 229.758 205.096 230.568C204.79 231.372 204.358 232.065 203.8 232.647C203.242 233.229 202.57 233.682 201.784 234.006C201.004 234.324 200.14 234.483 199.192 234.483C198.244 234.483 197.38 234.324 196.6 234.006C195.82 233.682 195.151 233.229 194.593 232.647C194.035 232.065 193.603 231.372 193.297 230.568C192.991 229.758 192.838 228.87 192.838 227.904C192.838 226.938 192.991 226.053 193.297 225.249C193.603 224.439 194.035 223.743 194.593 223.161C195.151 222.573 195.82 222.117 196.6 221.793C197.38 221.469 198.244 221.307 199.192 221.307C200.14 221.307 201.004 221.469 201.784 221.793C202.57 222.117 203.242 222.573 203.8 223.161C204.358 223.743 204.79 224.439 205.096 225.249C205.402 226.053 205.555 226.938 205.555 227.904ZM203.764 227.904C203.764 227.112 203.656 226.401 203.44 225.771C203.224 225.141 202.918 224.61 202.522 224.178C202.126 223.74 201.646 223.404 201.082 223.17C200.518 222.936 199.888 222.819 199.192 222.819C198.502 222.819 197.875 222.936 197.311 223.17C196.747 223.404 196.264 223.74 195.862 224.178C195.466 224.61 195.16 225.141 194.944 225.771C194.728 226.401 194.62 227.112 194.62 227.904C194.62 228.696 194.728 229.407 194.944 230.037C195.16 230.661 195.466 231.192 195.862 231.63C196.264 232.062 196.747 232.395 197.311 232.629C197.875 232.857 198.502 232.971 199.192 232.971C199.888 232.971 200.518 232.857 201.082 232.629C201.646 232.395 202.126 232.062 202.522 231.63C202.918 231.192 203.224 230.661 203.44 230.037C203.656 229.407 203.764 228.696 203.764 227.904ZM219.31 229.56L217.285 224.313C217.225 224.157 217.162 223.977 217.096 223.773C217.03 223.563 216.967 223.341 216.907 223.107C216.781 223.593 216.652 223.998 216.52 224.322L214.495 229.56H219.31ZM222.946 234.348H221.596C221.44 234.348 221.314 234.309 221.218 234.231C221.122 234.153 221.05 234.054 221.002 233.934L219.796 230.82H214.009L212.803 233.934C212.767 234.042 212.698 234.138 212.596 234.222C212.494 234.306 212.368 234.348 212.218 234.348H210.868L216.025 221.451H217.789L222.946 234.348ZM236.021 227.904C236.021 228.87 235.868 229.749 235.562 230.541C235.256 231.333 234.824 232.011 234.266 232.575C233.708 233.139 233.036 233.577 232.25 233.889C231.47 234.195 230.606 234.348 229.658 234.348H224.843V221.451H229.658C230.606 221.451 231.47 221.607 232.25 221.919C233.036 222.225 233.708 222.663 234.266 223.233C234.824 223.797 235.256 224.475 235.562 225.267C235.868 226.059 236.021 226.938 236.021 227.904ZM234.23 227.904C234.23 227.112 234.122 226.404 233.906 225.78C233.69 225.156 233.384 224.628 232.988 224.196C232.592 223.764 232.112 223.434 231.548 223.206C230.984 222.978 230.354 222.864 229.658 222.864H226.589V232.935H229.658C230.354 232.935 230.984 232.821 231.548 232.593C232.112 232.365 232.592 232.038 232.988 231.612C233.384 231.18 233.69 230.652 233.906 230.028C234.122 229.404 234.23 228.696 234.23 227.904ZM249.914 227.904C249.914 228.87 249.761 229.749 249.455 230.541C249.149 231.333 248.717 232.011 248.159 232.575C247.601 233.139 246.929 233.577 246.143 233.889C245.363 234.195 244.499 234.348 243.551 234.348H238.736V221.451H243.551C244.499 221.451 245.363 221.607 246.143 221.919C246.929 222.225 247.601 222.663 248.159 223.233C248.717 223.797 249.149 224.475 249.455 225.267C249.761 226.059 249.914 226.938 249.914 227.904ZM248.123 227.904C248.123 227.112 248.015 226.404 247.799 225.78C247.583 225.156 247.277 224.628 246.881 224.196C246.485 223.764 246.005 223.434 245.441 223.206C244.877 222.978 244.247 222.864 243.551 222.864H240.482V232.935H243.551C244.247 232.935 244.877 232.821 245.441 232.593C246.005 232.365 246.485 232.038 246.881 231.612C247.277 231.18 247.583 230.652 247.799 230.028C248.015 229.404 248.123 228.696 248.123 227.904ZM263.686 229.56L261.661 224.313C261.601 224.157 261.538 223.977 261.472 223.773C261.406 223.563 261.343 223.341 261.283 223.107C261.157 223.593 261.028 223.998 260.896 224.322L258.871 229.56H263.686ZM267.322 234.348H265.972C265.816 234.348 265.69 234.309 265.594 234.231C265.498 234.153 265.426 234.054 265.378 233.934L264.172 230.82H258.385L257.179 233.934C257.143 234.042 257.074 234.138 256.972 234.222C256.87 234.306 256.744 234.348 256.594 234.348H255.244L260.401 221.451H262.165L267.322 234.348ZM277.234 228.138C277.732 228.138 278.17 228.072 278.548 227.94C278.932 227.808 279.253 227.625 279.511 227.391C279.775 227.151 279.973 226.866 280.105 226.536C280.237 226.206 280.303 225.843 280.303 225.447C280.303 224.625 280.048 223.983 279.538 223.521C279.034 223.059 278.266 222.828 277.234 222.828H275.164V228.138H277.234ZM277.234 221.451C278.05 221.451 278.758 221.547 279.358 221.739C279.964 221.925 280.465 222.192 280.861 222.54C281.257 222.888 281.551 223.308 281.743 223.8C281.941 224.292 282.04 224.841 282.04 225.447C282.04 226.047 281.935 226.596 281.725 227.094C281.515 227.592 281.206 228.021 280.798 228.381C280.396 228.741 279.895 229.023 279.295 229.227C278.701 229.425 278.014 229.524 277.234 229.524H275.164V234.348H273.427V221.451H277.234ZM294.886 221.451V234.348H293.14V228.48H286.183V234.348H284.437V221.451H286.183V227.202H293.14V221.451H294.886ZM310.299 227.904C310.299 228.87 310.146 229.758 309.84 230.568C309.534 231.372 309.102 232.065 308.544 232.647C307.986 233.229 307.314 233.682 306.528 234.006C305.748 234.324 304.884 234.483 303.936 234.483C302.988 234.483 302.124 234.324 301.344 234.006C300.564 233.682 299.895 233.229 299.337 232.647C298.779 232.065 298.347 231.372 298.041 230.568C297.735 229.758 297.582 228.87 297.582 227.904C297.582 226.938 297.735 226.053 298.041 225.249C298.347 224.439 298.779 223.743 299.337 223.161C299.895 222.573 300.564 222.117 301.344 221.793C302.124 221.469 302.988 221.307 303.936 221.307C304.884 221.307 305.748 221.469 306.528 221.793C307.314 222.117 307.986 222.573 308.544 223.161C309.102 223.743 309.534 224.439 309.84 225.249C310.146 226.053 310.299 226.938 310.299 227.904ZM308.508 227.904C308.508 227.112 308.4 226.401 308.184 225.771C307.968 225.141 307.662 224.61 307.266 224.178C306.87 223.74 306.39 223.404 305.826 223.17C305.262 222.936 304.632 222.819 303.936 222.819C303.246 222.819 302.619 222.936 302.055 223.17C301.491 223.404 301.008 223.74 300.606 224.178C300.21 224.61 299.904 225.141 299.688 225.771C299.472 226.401 299.364 227.112 299.364 227.904C299.364 228.696 299.472 229.407 299.688 230.037C299.904 230.661 300.21 231.192 300.606 231.63C301.008 232.062 301.491 232.395 302.055 232.629C302.619 232.857 303.246 232.971 303.936 232.971C304.632 232.971 305.262 232.857 305.826 232.629C306.39 232.395 306.87 232.062 307.266 231.63C307.662 231.192 307.968 230.661 308.184 230.037C308.4 229.407 308.508 228.696 308.508 227.904ZM321.138 222.918H316.962V234.348H315.225V222.918H311.04V221.451H321.138V222.918ZM334.588 227.904C334.588 228.87 334.435 229.758 334.129 230.568C333.823 231.372 333.391 232.065 332.833 232.647C332.275 233.229 331.603 233.682 330.817 234.006C330.037 234.324 329.173 234.483 328.225 234.483C327.277 234.483 326.413 234.324 325.633 234.006C324.853 233.682 324.184 233.229 323.626 232.647C323.068 232.065 322.636 231.372 322.33 230.568C322.024 229.758 321.871 228.87 321.871 227.904C321.871 226.938 322.024 226.053 322.33 225.249C322.636 224.439 323.068 223.743 323.626 223.161C324.184 222.573 324.853 222.117 325.633 221.793C326.413 221.469 327.277 221.307 328.225 221.307C329.173 221.307 330.037 221.469 330.817 221.793C331.603 222.117 332.275 222.573 332.833 223.161C333.391 223.743 333.823 224.439 334.129 225.249C334.435 226.053 334.588 226.938 334.588 227.904ZM332.797 227.904C332.797 227.112 332.689 226.401 332.473 225.771C332.257 225.141 331.951 224.61 331.555 224.178C331.159 223.74 330.679 223.404 330.115 223.17C329.551 222.936 328.921 222.819 328.225 222.819C327.535 222.819 326.908 222.936 326.344 223.17C325.78 223.404 325.297 223.74 324.895 224.178C324.499 224.61 324.193 225.141 323.977 225.771C323.761 226.401 323.653 227.112 323.653 227.904C323.653 228.696 323.761 229.407 323.977 230.037C324.193 230.661 324.499 231.192 324.895 231.63C325.297 232.062 325.78 232.395 326.344 232.629C326.908 232.857 327.535 232.971 328.225 232.971C328.921 232.971 329.551 232.857 330.115 232.629C330.679 232.395 331.159 232.062 331.555 231.63C331.951 231.192 332.257 230.661 332.473 230.037C332.689 229.407 332.797 228.696 332.797 227.904ZM350.268 222.918H346.092V234.348H344.355V222.918H340.17V221.451H350.268V222.918ZM363.717 227.904C363.717 228.87 363.564 229.758 363.258 230.568C362.952 231.372 362.52 232.065 361.962 232.647C361.404 233.229 360.732 233.682 359.946 234.006C359.166 234.324 358.302 234.483 357.354 234.483C356.406 234.483 355.542 234.324 354.762 234.006C353.982 233.682 353.313 233.229 352.755 232.647C352.197 232.065 351.765 231.372 351.459 230.568C351.153 229.758 351 228.87 351 227.904C351 226.938 351.153 226.053 351.459 225.249C351.765 224.439 352.197 223.743 352.755 223.161C353.313 222.573 353.982 222.117 354.762 221.793C355.542 221.469 356.406 221.307 357.354 221.307C358.302 221.307 359.166 221.469 359.946 221.793C360.732 222.117 361.404 222.573 361.962 223.161C362.52 223.743 362.952 224.439 363.258 225.249C363.564 226.053 363.717 226.938 363.717 227.904ZM361.926 227.904C361.926 227.112 361.818 226.401 361.602 225.771C361.386 225.141 361.08 224.61 360.684 224.178C360.288 223.74 359.808 223.404 359.244 223.17C358.68 222.936 358.05 222.819 357.354 222.819C356.664 222.819 356.037 222.936 355.473 223.17C354.909 223.404 354.426 223.74 354.024 224.178C353.628 224.61 353.322 225.141 353.106 225.771C352.89 226.401 352.782 227.112 352.782 227.904C352.782 228.696 352.89 229.407 353.106 230.037C353.322 230.661 353.628 231.192 354.024 231.63C354.426 232.062 354.909 232.395 355.473 232.629C356.037 232.857 356.664 232.971 357.354 232.971C358.05 232.971 358.68 232.857 359.244 232.629C359.808 232.395 360.288 232.062 360.684 231.63C361.08 231.192 361.386 230.661 361.602 230.037C361.818 229.407 361.926 228.696 361.926 227.904ZM160.076 261.209V266.348H158.33V261.209L153.605 253.451H155.135C155.291 253.451 155.414 253.49 155.504 253.568C155.594 253.64 155.672 253.736 155.738 253.856L158.69 258.869C158.798 259.079 158.897 259.277 158.987 259.463C159.077 259.643 159.155 259.826 159.221 260.012C159.287 259.826 159.362 259.643 159.446 259.463C159.53 259.277 159.623 259.079 159.725 258.869L162.668 253.856C162.722 253.754 162.797 253.661 162.893 253.577C162.989 253.493 163.112 253.451 163.262 253.451H164.801L160.076 261.209ZM177.897 259.904C177.897 260.87 177.744 261.758 177.438 262.568C177.132 263.372 176.7 264.065 176.142 264.647C175.584 265.229 174.912 265.682 174.126 266.006C173.346 266.324 172.482 266.483 171.534 266.483C170.586 266.483 169.722 266.324 168.942 266.006C168.162 265.682 167.493 265.229 166.935 264.647C166.377 264.065 165.945 263.372 165.639 262.568C165.333 261.758 165.18 260.87 165.18 259.904C165.18 258.938 165.333 258.053 165.639 257.249C165.945 256.439 166.377 255.743 166.935 255.161C167.493 254.573 168.162 254.117 168.942 253.793C169.722 253.469 170.586 253.307 171.534 253.307C172.482 253.307 173.346 253.469 174.126 253.793C174.912 254.117 175.584 254.573 176.142 255.161C176.7 255.743 177.132 256.439 177.438 257.249C177.744 258.053 177.897 258.938 177.897 259.904ZM176.106 259.904C176.106 259.112 175.998 258.401 175.782 257.771C175.566 257.141 175.26 256.61 174.864 256.178C174.468 255.74 173.988 255.404 173.424 255.17C172.86 254.936 172.23 254.819 171.534 254.819C170.844 254.819 170.217 254.936 169.653 255.17C169.089 255.404 168.606 255.74 168.204 256.178C167.808 256.61 167.502 257.141 167.286 257.771C167.07 258.401 166.962 259.112 166.962 259.904C166.962 260.696 167.07 261.407 167.286 262.037C167.502 262.661 167.808 263.192 168.204 263.63C168.606 264.062 169.089 264.395 169.653 264.629C170.217 264.857 170.844 264.971 171.534 264.971C172.23 264.971 172.86 264.857 173.424 264.629C173.988 264.395 174.468 264.062 174.864 263.63C175.26 263.192 175.566 262.661 175.782 262.037C175.998 261.407 176.106 260.696 176.106 259.904ZM185.572 264.962C186.106 264.962 186.583 264.872 187.003 264.692C187.423 264.512 187.777 264.26 188.065 263.936C188.359 263.612 188.581 263.225 188.731 262.775C188.887 262.325 188.965 261.83 188.965 261.29V253.451H190.702V261.29C190.702 262.034 190.582 262.724 190.342 263.36C190.108 263.996 189.769 264.548 189.325 265.016C188.887 265.478 188.35 265.841 187.714 266.105C187.078 266.369 186.364 266.501 185.572 266.501C184.78 266.501 184.066 266.369 183.43 266.105C182.794 265.841 182.254 265.478 181.81 265.016C181.366 264.548 181.024 263.996 180.784 263.36C180.55 262.724 180.433 262.034 180.433 261.29V253.451H182.17V261.281C182.17 261.821 182.245 262.316 182.395 262.766C182.551 263.216 182.773 263.603 183.061 263.927C183.355 264.251 183.712 264.506 184.132 264.692C184.558 264.872 185.038 264.962 185.572 264.962ZM197.604 259.697C198.108 259.697 198.552 259.637 198.936 259.517C199.326 259.391 199.65 259.217 199.908 258.995C200.172 258.767 200.37 258.497 200.502 258.185C200.634 257.873 200.7 257.528 200.7 257.15C200.7 256.382 200.448 255.803 199.944 255.413C199.44 255.023 198.684 254.828 197.676 254.828H195.768V259.697H197.604ZM203.562 266.348H202.014C201.696 266.348 201.462 266.225 201.312 265.979L197.964 261.371C197.862 261.227 197.751 261.125 197.631 261.065C197.517 260.999 197.337 260.966 197.091 260.966H195.768V266.348H194.031V253.451H197.676C198.492 253.451 199.197 253.535 199.791 253.703C200.385 253.865 200.874 254.102 201.258 254.414C201.648 254.726 201.936 255.104 202.122 255.548C202.308 255.986 202.401 256.478 202.401 257.024C202.401 257.48 202.329 257.906 202.185 258.302C202.041 258.698 201.831 259.055 201.555 259.373C201.285 259.685 200.952 259.952 200.556 260.174C200.166 260.396 199.722 260.564 199.224 260.678C199.446 260.804 199.638 260.987 199.8 261.227L203.562 266.348ZM214.129 260.138C214.627 260.138 215.065 260.072 215.443 259.94C215.827 259.808 216.148 259.625 216.406 259.391C216.67 259.151 216.868 258.866 217 258.536C217.132 258.206 217.198 257.843 217.198 257.447C217.198 256.625 216.943 255.983 216.433 255.521C215.929 255.059 215.161 254.828 214.129 254.828H212.059V260.138H214.129ZM214.129 253.451C214.945 253.451 215.653 253.547 216.253 253.739C216.859 253.925 217.36 254.192 217.756 254.54C218.152 254.888 218.446 255.308 218.638 255.8C218.836 256.292 218.935 256.841 218.935 257.447C218.935 258.047 218.83 258.596 218.62 259.094C218.41 259.592 218.101 260.021 217.693 260.381C217.291 260.741 216.79 261.023 216.19 261.227C215.596 261.425 214.909 261.524 214.129 261.524H212.059V266.348H210.322V253.451H214.129ZM224.906 259.697C225.41 259.697 225.854 259.637 226.238 259.517C226.628 259.391 226.952 259.217 227.21 258.995C227.474 258.767 227.672 258.497 227.804 258.185C227.936 257.873 228.002 257.528 228.002 257.15C228.002 256.382 227.75 255.803 227.246 255.413C226.742 255.023 225.986 254.828 224.978 254.828H223.07V259.697H224.906ZM230.864 266.348H229.316C228.998 266.348 228.764 266.225 228.614 265.979L225.266 261.371C225.164 261.227 225.053 261.125 224.933 261.065C224.819 260.999 224.639 260.966 224.393 260.966H223.07V266.348H221.333V253.451H224.978C225.794 253.451 226.499 253.535 227.093 253.703C227.687 253.865 228.176 254.102 228.56 254.414C228.95 254.726 229.238 255.104 229.424 255.548C229.61 255.986 229.703 256.478 229.703 257.024C229.703 257.48 229.631 257.906 229.487 258.302C229.343 258.698 229.133 259.055 228.857 259.373C228.587 259.685 228.254 259.952 227.858 260.174C227.468 260.396 227.024 260.564 226.526 260.678C226.748 260.804 226.94 260.987 227.102 261.227L230.864 266.348ZM244.611 259.904C244.611 260.87 244.458 261.758 244.152 262.568C243.846 263.372 243.414 264.065 242.856 264.647C242.298 265.229 241.626 265.682 240.84 266.006C240.06 266.324 239.196 266.483 238.248 266.483C237.3 266.483 236.436 266.324 235.656 266.006C234.876 265.682 234.207 265.229 233.649 264.647C233.091 264.065 232.659 263.372 232.353 262.568C232.047 261.758 231.894 260.87 231.894 259.904C231.894 258.938 232.047 258.053 232.353 257.249C232.659 256.439 233.091 255.743 233.649 255.161C234.207 254.573 234.876 254.117 235.656 253.793C236.436 253.469 237.3 253.307 238.248 253.307C239.196 253.307 240.06 253.469 240.84 253.793C241.626 254.117 242.298 254.573 242.856 255.161C243.414 255.743 243.846 256.439 244.152 257.249C244.458 258.053 244.611 258.938 244.611 259.904ZM242.82 259.904C242.82 259.112 242.712 258.401 242.496 257.771C242.28 257.141 241.974 256.61 241.578 256.178C241.182 255.74 240.702 255.404 240.138 255.17C239.574 254.936 238.944 254.819 238.248 254.819C237.558 254.819 236.931 254.936 236.367 255.17C235.803 255.404 235.32 255.74 234.918 256.178C234.522 256.61 234.216 257.141 234 257.771C233.784 258.401 233.676 259.112 233.676 259.904C233.676 260.696 233.784 261.407 234 262.037C234.216 262.661 234.522 263.192 234.918 263.63C235.32 264.062 235.803 264.395 236.367 264.629C236.931 264.857 237.558 264.971 238.248 264.971C238.944 264.971 239.574 264.857 240.138 264.629C240.702 264.395 241.182 264.062 241.578 263.63C241.974 263.192 242.28 262.661 242.496 262.037C242.712 261.407 242.82 260.696 242.82 259.904ZM251.104 261.893C251.104 262.613 251.014 263.258 250.834 263.828C250.66 264.398 250.399 264.881 250.051 265.277C249.709 265.667 249.286 265.967 248.782 266.177C248.278 266.387 247.699 266.492 247.045 266.492C246.451 266.492 245.845 266.408 245.227 266.24C245.239 266.066 245.254 265.895 245.272 265.727C245.29 265.553 245.305 265.382 245.317 265.214C245.329 265.112 245.365 265.031 245.425 264.971C245.491 264.905 245.59 264.872 245.722 264.872C245.83 264.872 245.971 264.899 246.145 264.953C246.325 265.007 246.565 265.034 246.865 265.034C247.261 265.034 247.615 264.974 247.927 264.854C248.239 264.734 248.5 264.548 248.71 264.296C248.92 264.044 249.079 263.723 249.187 263.333C249.301 262.937 249.358 262.469 249.358 261.929V253.451H251.104V261.893ZM262.426 264.926L262.417 266.348H254.47V253.451H262.417V254.873H256.216V259.157H261.238V260.525H256.216V264.926H262.426ZM273.831 263.684C273.927 263.684 274.011 263.723 274.083 263.801L274.776 264.548C274.248 265.16 273.606 265.637 272.85 265.979C272.1 266.321 271.191 266.492 270.123 266.492C269.199 266.492 268.359 266.333 267.603 266.015C266.847 265.691 266.202 265.241 265.668 264.665C265.134 264.083 264.72 263.387 264.426 262.577C264.132 261.767 263.985 260.876 263.985 259.904C263.985 258.932 264.138 258.041 264.444 257.231C264.75 256.421 265.179 255.725 265.731 255.143C266.289 254.561 266.955 254.111 267.729 253.793C268.503 253.469 269.358 253.307 270.294 253.307C271.212 253.307 272.022 253.454 272.724 253.748C273.426 254.042 274.044 254.441 274.578 254.945L274.002 255.746C273.966 255.806 273.918 255.857 273.858 255.899C273.804 255.935 273.729 255.953 273.633 255.953C273.525 255.953 273.393 255.896 273.237 255.782C273.081 255.662 272.877 255.53 272.625 255.386C272.373 255.242 272.058 255.113 271.68 254.999C271.302 254.879 270.837 254.819 270.285 254.819C269.619 254.819 269.01 254.936 268.458 255.17C267.906 255.398 267.429 255.731 267.027 256.169C266.631 256.607 266.322 257.141 266.1 257.771C265.878 258.401 265.767 259.112 265.767 259.904C265.767 260.708 265.881 261.425 266.109 262.055C266.343 262.685 266.658 263.219 267.054 263.657C267.456 264.089 267.927 264.419 268.467 264.647C269.013 264.875 269.601 264.989 270.231 264.989C270.615 264.989 270.96 264.968 271.266 264.926C271.578 264.878 271.863 264.806 272.121 264.71C272.385 264.614 272.628 264.494 272.85 264.35C273.078 264.2 273.303 264.023 273.525 263.819C273.627 263.729 273.729 263.684 273.831 263.684ZM285.722 254.918H281.546V266.348H279.809V254.918H275.624V253.451H285.722V254.918Z" fill="white"/>
</svg>
