<svg width="26" height="37" viewBox="0 0 26 37" fill="none" xmlns="http://www.w3.org/2000/svg">
<path d="M23.9493 10.7042C23.916 10.6137 23.8666 10.5335 23.804 10.4665L15.8053 1.71792C15.744 1.65085 15.6693 1.59685 15.588 1.55898C15.5067 1.52248 15.42 1.50354 15.3333 1.50354H2C0.897313 1.50354 0 2.48498 0 3.69104V34.316C0 35.5221 0.897313 36.5035 2 36.5035H22C23.1027 36.5035 24 35.5221 24 34.316V10.9827C24 10.8879 23.9827 10.7931 23.9493 10.7042ZM18 27.7535H6C5.632 27.7535 5.33331 27.4269 5.33331 27.0244C5.33331 26.6219 5.632 26.2952 6 26.2952H18C18.368 26.2952 18.6667 26.6219 18.6667 27.0244C18.6667 27.4269 18.368 27.7535 18 27.7535ZM18 21.9202H6C5.632 21.9202 5.33331 21.5935 5.33331 21.191C5.33331 20.7885 5.632 20.4619 6 20.4619H18C18.368 20.4619 18.6667 20.7885 18.6667 21.191C18.6667 21.5935 18.368 21.9202 18 21.9202ZM18 16.0869H6C5.632 16.0869 5.33331 15.7602 5.33331 15.3577C5.33331 14.9552 5.632 14.6285 6 14.6285H18C18.368 14.6285 18.6667 14.9552 18.6667 15.3577C18.6667 15.7602 18.368 16.0869 18 16.0869ZM16.6667 10.2535C16.3 10.2535 16 9.92685 16 9.52435V3.99292L21.724 10.2535H16.6667Z" fill="white"/>
<rect x="24" width="5" height="0.999999" rx="0.499999" transform="rotate(90 24 0)" fill="white"/>
<rect x="26" y="3" width="5" height="1" rx="0.5" transform="rotate(-180 26 3)" fill="white"/>
</svg>
