<svg width="33" height="34" viewBox="0 0 33 34" fill="none" xmlns="http://www.w3.org/2000/svg">
<ellipse cx="16.5" cy="17" rx="16.5" ry="17" fill="#C4C4C4"/>
<path d="M23.2292 15.125H22.0417V13.5417C22.0417 10.486 19.5557 8 16.5 8C13.4443 8 10.9583 10.486 10.9583 13.5417V15.125H9.77085C9.55205 15.125 9.375 15.302 9.375 15.5208V25.4167C9.375 26.2899 10.0851 27 10.9583 27H22.0417C22.9149 27 23.625 26.2899 23.625 25.4167V15.5208C23.625 15.302 23.448 15.125 23.2292 15.125ZM17.6852 23.3938C17.6976 23.5055 17.6616 23.6176 17.5866 23.7015C17.5116 23.7854 17.4042 23.8333 17.2917 23.8333H15.7083C15.5959 23.8333 15.4884 23.7854 15.4134 23.7015C15.3384 23.6177 15.3024 23.5056 15.3148 23.3938L15.5645 21.1483C15.1591 20.8534 14.9167 20.3868 14.9167 19.875C14.9167 19.0018 15.6268 18.2917 16.5 18.2917C17.3733 18.2917 18.0834 19.0017 18.0834 19.875C18.0834 20.3868 17.841 20.8534 17.4355 21.1483L17.6852 23.3938ZM19.6667 15.125H13.3333V13.5417C13.3333 11.7956 14.7539 10.375 16.5 10.375C18.2461 10.375 19.6667 11.7956 19.6667 13.5417V15.125Z" fill="white"/>
</svg>
