<svg width="33" height="36" viewBox="0 0 33 36" fill="none" xmlns="http://www.w3.org/2000/svg">
<path d="M16.3465 0.603394C7.3195 0.603394 0 8.30696 0 17.8102C0 27.3134 7.31878 35.017 16.3465 35.017C25.3748 35.017 32.6929 27.3134 32.6929 17.8102C32.6929 8.30696 25.3748 0.603394 16.3465 0.603394ZM16.3465 5.74842C19.3334 5.74842 21.7539 8.29713 21.7539 11.4399C21.7539 14.5835 19.3334 17.1314 16.3465 17.1314C13.3609 17.1314 10.9405 14.5835 10.9405 11.4399C10.9405 8.29713 13.3609 5.74842 16.3465 5.74842ZM16.3429 30.5182C13.3638 30.5182 10.6353 29.3761 8.5308 27.4857C8.01813 27.0254 7.72231 26.3505 7.72231 25.6422C7.72231 22.4548 10.1729 19.9039 13.2015 19.9039H19.4928C22.5221 19.9039 24.9634 22.4548 24.9634 25.6422C24.9634 26.3512 24.669 27.0247 24.1556 27.485C22.0518 29.3761 19.3226 30.5182 16.3429 30.5182Z" fill="#BDBDBD"/>
</svg>
