<svg width="200" height="200" viewBox="0 0 200 200" fill="none" xmlns="http://www.w3.org/2000/svg">
<rect width="200" height="200" rx="40" fill="#D33F49"/>
<path d="M19 50C19 33.4315 32.4315 20 49 20H150C166.569 20 180 33.4315 180 50V107H19V50Z" fill="#221122"/>
<path d="M49 46.5C49 39.0442 55.0442 33 62.5 33C69.9558 33 76 39.0442 76 46.5V143H49V46.5Z" fill="#D33F49"/>
<path d="M123 46.5C123 39.0442 129.044 33 136.5 33C143.956 33 150 39.0442 150 46.5V143H123V46.5Z" fill="#D33F49"/>
<path d="M86 46.5C86 39.0442 92.0442 33 99.5 33C106.956 33 113 39.0442 113 46.5V143H86V46.5Z" fill="#D33F49"/>
<rect x="19" y="60" width="161" height="7" fill="#221122"/>
<circle cx="96" cy="170" r="25" fill="#221122"/>
<circle cx="96" cy="170" r="20" fill="#D33F49"/>
<path d="M82.1828 115.555L115.272 154.211L83.7782 166.414L82.1828 115.555Z" fill="#221122"/>
<path d="M86.6235 128.421L111.241 156.935L87.6446 166.078L86.6235 128.421Z" fill="#D33F49"/>
</svg>
