<svg width="1068" height="200" viewBox="0 0 1068 200" fill="none" xmlns="http://www.w3.org/2000/svg">
<rect width="200" height="200" rx="40" fill="#D33F49"/>
<path d="M19 50C19 33.4315 32.4315 20 49 20H150C166.569 20 180 33.4315 180 50V107H19V50Z" fill="#221122"/>
<path d="M49 46.5C49 39.0442 55.0442 33 62.5 33C69.9558 33 76 39.0442 76 46.5V143H49V46.5Z" fill="#D33F49"/>
<path d="M123 46.5C123 39.0442 129.044 33 136.5 33C143.956 33 150 39.0442 150 46.5V143H123V46.5Z" fill="#D33F49"/>
<path d="M86 46.5C86 39.0442 92.0442 33 99.5 33C106.956 33 113 39.0442 113 46.5V143H86V46.5Z" fill="#D33F49"/>
<rect x="19" y="60" width="161" height="7" fill="#221122"/>
<circle cx="96" cy="170" r="25" fill="#221122"/>
<circle cx="96" cy="170" r="20" fill="#D33F49"/>
<path d="M82.1828 115.555L115.272 154.211L83.7782 166.414L82.1828 115.555Z" fill="#221122"/>
<path d="M86.6235 128.421L111.241 156.935L87.6446 166.078L86.6235 128.421Z" fill="#D33F49"/>
<path d="M349.058 51.888V156H331.994V88.752C331.994 86.064 332.138 83.16 332.426 80.04L300.962 139.152C299.474 141.984 297.194 143.4 294.122 143.4H291.386C288.314 143.4 286.034 141.984 284.546 139.152L252.722 79.824C252.866 81.408 252.986 82.968 253.082 84.504C253.178 86.04 253.226 87.456 253.226 88.752V156H236.162V51.888H250.778C251.642 51.888 252.386 51.912 253.01 51.96C253.634 52.008 254.186 52.128 254.666 52.32C255.194 52.512 255.65 52.824 256.034 53.256C256.466 53.688 256.874 54.264 257.258 54.984L288.434 112.8C289.25 114.336 289.994 115.92 290.666 117.552C291.386 119.184 292.082 120.864 292.754 122.592C293.426 120.816 294.122 119.112 294.842 117.48C295.562 115.8 296.33 114.192 297.146 112.656L327.89 54.984C328.274 54.264 328.682 53.688 329.114 53.256C329.546 52.824 330.002 52.512 330.482 52.32C331.01 52.128 331.586 52.008 332.21 51.96C332.834 51.912 333.578 51.888 334.442 51.888H349.058ZM427.295 116.688L414.623 82.056C413.999 80.52 413.351 78.696 412.679 76.584C412.007 74.472 411.335 72.192 410.663 69.744C410.039 72.192 409.391 74.496 408.719 76.656C408.047 78.768 407.399 80.616 406.775 82.2L394.175 116.688H427.295ZM461.495 156H446.519C444.839 156 443.471 155.592 442.415 154.776C441.359 153.912 440.567 152.856 440.039 151.608L432.263 130.368H389.135L381.359 151.608C380.975 152.712 380.231 153.72 379.127 154.632C378.023 155.544 376.655 156 375.023 156H359.903L400.871 51.888H420.599L461.495 156ZM534.867 67.8H503.475V156H484.107V67.8H452.715V51.888H534.867V67.8ZM616.471 131.448C617.527 131.448 618.463 131.856 619.279 132.672L626.911 140.952C622.687 146.184 617.479 150.192 611.287 152.976C605.143 155.76 597.751 157.152 589.111 157.152C581.383 157.152 574.423 155.832 568.231 153.192C562.087 150.552 556.831 146.88 552.463 142.176C548.095 137.472 544.735 131.856 542.383 125.328C540.079 118.8 538.927 111.672 538.927 103.944C538.927 96.12 540.175 88.968 542.671 82.488C545.167 75.96 548.671 70.344 553.183 65.64C557.743 60.936 563.167 57.288 569.455 54.696C575.743 52.056 582.703 50.736 590.335 50.736C597.919 50.736 604.639 51.984 610.495 54.48C616.399 56.976 621.415 60.24 625.543 64.272L619.063 73.272C618.679 73.848 618.175 74.352 617.551 74.784C616.975 75.216 616.159 75.432 615.103 75.432C614.383 75.432 613.639 75.24 612.871 74.856C612.103 74.424 611.263 73.92 610.351 73.344C609.439 72.72 608.383 72.048 607.183 71.328C605.983 70.608 604.591 69.96 603.007 69.384C601.423 68.76 599.575 68.256 597.463 67.872C595.399 67.44 592.999 67.224 590.263 67.224C585.607 67.224 581.335 68.064 577.447 69.744C573.607 71.376 570.295 73.776 567.511 76.944C564.727 80.064 562.567 83.904 561.031 88.464C559.495 92.976 558.727 98.136 558.727 103.944C558.727 109.8 559.543 115.008 561.175 119.568C562.855 124.128 565.111 127.968 567.943 131.088C570.775 134.208 574.111 136.608 577.951 138.288C581.791 139.92 585.919 140.736 590.335 140.736C592.975 140.736 595.351 140.592 597.463 140.304C599.623 140.016 601.591 139.56 603.367 138.936C605.191 138.312 606.895 137.52 608.479 136.56C610.111 135.552 611.719 134.328 613.303 132.888C613.783 132.456 614.287 132.12 614.815 131.88C615.343 131.592 615.895 131.448 616.471 131.448ZM727.946 51.888V156H708.506V110.496H659.618V156H640.178V51.888H659.618V96.672H708.506V51.888H727.946ZM790.083 140.88C793.683 140.88 796.707 140.448 799.155 139.584C801.603 138.72 803.547 137.568 804.987 136.128C806.475 134.688 807.531 133.008 808.155 131.088C808.827 129.168 809.163 127.128 809.163 124.968C809.163 122.712 808.803 120.696 808.083 118.92C807.363 117.096 806.235 115.56 804.699 114.312C803.163 113.016 801.171 112.032 798.723 111.36C796.323 110.688 793.419 110.352 790.011 110.352H770.499V140.88H790.083ZM770.499 66.864V96.96H785.907C792.531 96.96 797.523 95.76 800.883 93.36C804.291 90.96 805.995 87.144 805.995 81.912C805.995 76.488 804.459 72.624 801.387 70.32C798.315 68.016 793.515 66.864 786.987 66.864H770.499ZM786.987 51.888C793.803 51.888 799.635 52.536 804.483 53.832C809.331 55.128 813.291 56.976 816.363 59.376C819.483 61.776 821.763 64.68 823.203 68.088C824.643 71.496 825.363 75.336 825.363 79.608C825.363 82.056 825.003 84.408 824.283 86.664C823.563 88.872 822.435 90.96 820.899 92.928C819.411 94.848 817.491 96.6 815.139 98.184C812.835 99.768 810.075 101.112 806.859 102.216C821.163 105.432 828.315 113.16 828.315 125.4C828.315 129.816 827.475 133.896 825.795 137.64C824.115 141.384 821.667 144.624 818.451 147.36C815.235 150.048 811.275 152.16 806.571 153.696C801.867 155.232 796.491 156 790.443 156H751.131V51.888H786.987ZM945.2 103.944C945.2 111.576 943.928 118.656 941.384 125.184C938.888 131.664 935.336 137.28 930.728 142.032C926.12 146.784 920.576 150.504 914.096 153.192C907.616 155.832 900.416 157.152 892.496 157.152C884.624 157.152 877.448 155.832 870.968 153.192C864.488 150.504 858.92 146.784 854.264 142.032C849.656 137.28 846.08 131.664 843.536 125.184C840.992 118.656 839.72 111.576 839.72 103.944C839.72 96.312 840.992 89.256 843.536 82.776C846.08 76.248 849.656 70.608 854.264 65.856C858.92 61.104 864.488 57.408 870.968 54.768C877.448 52.08 884.624 50.736 892.496 50.736C897.776 50.736 902.744 51.36 907.4 52.608C912.056 53.808 916.328 55.536 920.216 57.792C924.104 60 927.584 62.712 930.656 65.928C933.776 69.096 936.416 72.648 938.576 76.584C940.736 80.52 942.368 84.792 943.472 89.4C944.624 94.008 945.2 98.856 945.2 103.944ZM925.4 103.944C925.4 98.232 924.632 93.12 923.096 88.608C921.56 84.048 919.376 80.184 916.544 77.016C913.712 73.848 910.256 71.424 906.176 69.744C902.144 68.064 897.584 67.224 892.496 67.224C887.408 67.224 882.824 68.064 878.744 69.744C874.712 71.424 871.256 73.848 868.376 77.016C865.544 80.184 863.36 84.048 861.824 88.608C860.288 93.12 859.52 98.232 859.52 103.944C859.52 109.656 860.288 114.792 861.824 119.352C863.36 123.864 865.544 127.704 868.376 130.872C871.256 133.992 874.712 136.392 878.744 138.072C882.824 139.752 887.408 140.592 892.496 140.592C897.584 140.592 902.144 139.752 906.176 138.072C910.256 136.392 913.712 133.992 916.544 130.872C919.376 127.704 921.56 123.864 923.096 119.352C924.632 114.792 925.4 109.656 925.4 103.944ZM1043.01 156H1023.72C1022.37 156 1021.29 155.664 1020.48 154.992C1019.71 154.32 1019.08 153.552 1018.6 152.688L994.484 112.728C994.1 113.928 993.644 114.96 993.116 115.824L970.004 152.688C969.428 153.504 968.756 154.272 967.988 154.992C967.268 155.664 966.308 156 965.108 156H947.036L981.596 102.432L948.404 51.888H967.7C969.044 51.888 970.004 52.08 970.58 52.464C971.204 52.8 971.78 53.376 972.308 54.192L995.996 92.352C996.476 91.152 997.052 89.952 997.724 88.752L1019.47 54.552C1020 53.64 1020.57 52.968 1021.2 52.536C1021.82 52.104 1022.61 51.888 1023.57 51.888H1042.08L1008.6 101.64L1043.01 156Z" fill="white"/>
</svg>
