<svg width="477" height="470" viewBox="0 0 477 470" fill="none" xmlns="http://www.w3.org/2000/svg">
<ellipse cx="238.187" cy="234.699" rx="238.187" ry="234.699" fill="#C4C4C4" fill-opacity="0.3"/>
<path d="M195.402 235.873V248.77H194.529C194.391 248.77 194.274 248.746 194.178 248.698C194.088 248.65 193.998 248.569 193.908 248.455L186.447 238.735C186.459 238.885 186.468 239.032 186.474 239.176C186.48 239.32 186.483 239.455 186.483 239.581V248.77H184.953V235.873H185.853C185.931 235.873 185.997 235.879 186.051 235.891C186.105 235.897 186.153 235.912 186.195 235.936C186.237 235.954 186.279 235.984 186.321 236.026C186.363 236.062 186.408 236.11 186.456 236.17L193.917 245.881C193.905 245.725 193.893 245.575 193.881 245.431C193.875 245.281 193.872 245.14 193.872 245.008V235.873H195.402ZM210.815 242.326C210.815 243.292 210.662 244.18 210.356 244.99C210.05 245.794 209.618 246.487 209.06 247.069C208.502 247.651 207.83 248.104 207.044 248.428C206.264 248.746 205.4 248.905 204.452 248.905C203.504 248.905 202.64 248.746 201.86 248.428C201.08 248.104 200.411 247.651 199.853 247.069C199.295 246.487 198.863 245.794 198.557 244.99C198.251 244.18 198.098 243.292 198.098 242.326C198.098 241.36 198.251 240.475 198.557 239.671C198.863 238.861 199.295 238.165 199.853 237.583C200.411 236.995 201.08 236.539 201.86 236.215C202.64 235.891 203.504 235.729 204.452 235.729C205.4 235.729 206.264 235.891 207.044 236.215C207.83 236.539 208.502 236.995 209.06 237.583C209.618 238.165 210.05 238.861 210.356 239.671C210.662 240.475 210.815 241.36 210.815 242.326ZM209.024 242.326C209.024 241.534 208.916 240.823 208.7 240.193C208.484 239.563 208.178 239.032 207.782 238.6C207.386 238.162 206.906 237.826 206.342 237.592C205.778 237.358 205.148 237.241 204.452 237.241C203.762 237.241 203.135 237.358 202.571 237.592C202.007 237.826 201.524 238.162 201.122 238.6C200.726 239.032 200.42 239.563 200.204 240.193C199.988 240.823 199.88 241.534 199.88 242.326C199.88 243.118 199.988 243.829 200.204 244.459C200.42 245.083 200.726 245.614 201.122 246.052C201.524 246.484 202.007 246.817 202.571 247.051C203.135 247.279 203.762 247.393 204.452 247.393C205.148 247.393 205.778 247.279 206.342 247.051C206.906 246.817 207.386 246.484 207.782 246.052C208.178 245.614 208.484 245.083 208.7 244.459C208.916 243.829 209.024 243.118 209.024 242.326ZM222.126 242.56C222.624 242.56 223.062 242.494 223.44 242.362C223.824 242.23 224.145 242.047 224.403 241.813C224.667 241.573 224.865 241.288 224.997 240.958C225.129 240.628 225.195 240.265 225.195 239.869C225.195 239.047 224.94 238.405 224.43 237.943C223.926 237.481 223.158 237.25 222.126 237.25H220.056V242.56H222.126ZM222.126 235.873C222.942 235.873 223.65 235.969 224.25 236.161C224.856 236.347 225.357 236.614 225.753 236.962C226.149 237.31 226.443 237.73 226.635 238.222C226.833 238.714 226.932 239.263 226.932 239.869C226.932 240.469 226.827 241.018 226.617 241.516C226.407 242.014 226.098 242.443 225.69 242.803C225.288 243.163 224.787 243.445 224.187 243.649C223.593 243.847 222.906 243.946 222.126 243.946H220.056V248.77H218.319V235.873H222.126ZM231.075 248.77H229.329V235.873H231.075V248.77ZM243.628 246.106C243.724 246.106 243.808 246.145 243.88 246.223L244.573 246.97C244.045 247.582 243.403 248.059 242.647 248.401C241.897 248.743 240.988 248.914 239.92 248.914C238.996 248.914 238.156 248.755 237.4 248.437C236.644 248.113 235.999 247.663 235.465 247.087C234.931 246.505 234.517 245.809 234.223 244.999C233.929 244.189 233.782 243.298 233.782 242.326C233.782 241.354 233.935 240.463 234.241 239.653C234.547 238.843 234.976 238.147 235.528 237.565C236.086 236.983 236.752 236.533 237.526 236.215C238.3 235.891 239.155 235.729 240.091 235.729C241.009 235.729 241.819 235.876 242.521 236.17C243.223 236.464 243.841 236.863 244.375 237.367L243.799 238.168C243.763 238.228 243.715 238.279 243.655 238.321C243.601 238.357 243.526 238.375 243.43 238.375C243.322 238.375 243.19 238.318 243.034 238.204C242.878 238.084 242.674 237.952 242.422 237.808C242.17 237.664 241.855 237.535 241.477 237.421C241.099 237.301 240.634 237.241 240.082 237.241C239.416 237.241 238.807 237.358 238.255 237.592C237.703 237.82 237.226 238.153 236.824 238.591C236.428 239.029 236.119 239.563 235.897 240.193C235.675 240.823 235.564 241.534 235.564 242.326C235.564 243.13 235.678 243.847 235.906 244.477C236.14 245.107 236.455 245.641 236.851 246.079C237.253 246.511 237.724 246.841 238.264 247.069C238.81 247.297 239.398 247.411 240.028 247.411C240.412 247.411 240.757 247.39 241.063 247.348C241.375 247.3 241.66 247.228 241.918 247.132C242.182 247.036 242.425 246.916 242.647 246.772C242.875 246.622 243.1 246.445 243.322 246.241C243.424 246.151 243.526 246.106 243.628 246.106ZM255.518 237.34H251.342V248.77H249.605V237.34H245.42V235.873H255.518V237.34ZM262.609 247.384C263.143 247.384 263.62 247.294 264.04 247.114C264.46 246.934 264.814 246.682 265.102 246.358C265.396 246.034 265.618 245.647 265.768 245.197C265.924 244.747 266.002 244.252 266.002 243.712V235.873H267.739V243.712C267.739 244.456 267.619 245.146 267.379 245.782C267.145 246.418 266.806 246.97 266.362 247.438C265.924 247.9 265.387 248.263 264.751 248.527C264.115 248.791 263.401 248.923 262.609 248.923C261.817 248.923 261.103 248.791 260.467 248.527C259.831 248.263 259.291 247.9 258.847 247.438C258.403 246.97 258.061 246.418 257.821 245.782C257.587 245.146 257.47 244.456 257.47 243.712V235.873H259.207V243.703C259.207 244.243 259.282 244.738 259.432 245.188C259.588 245.638 259.81 246.025 260.098 246.349C260.392 246.673 260.749 246.928 261.169 247.114C261.595 247.294 262.075 247.384 262.609 247.384ZM274.642 242.119C275.146 242.119 275.59 242.059 275.974 241.939C276.364 241.813 276.688 241.639 276.946 241.417C277.21 241.189 277.408 240.919 277.54 240.607C277.672 240.295 277.738 239.95 277.738 239.572C277.738 238.804 277.486 238.225 276.982 237.835C276.478 237.445 275.722 237.25 274.714 237.25H272.806V242.119H274.642ZM280.6 248.77H279.052C278.734 248.77 278.5 248.647 278.35 248.401L275.002 243.793C274.9 243.649 274.789 243.547 274.669 243.487C274.555 243.421 274.375 243.388 274.129 243.388H272.806V248.77H271.069V235.873H274.714C275.53 235.873 276.235 235.957 276.829 236.125C277.423 236.287 277.912 236.524 278.296 236.836C278.686 237.148 278.974 237.526 279.16 237.97C279.346 238.408 279.439 238.9 279.439 239.446C279.439 239.902 279.367 240.328 279.223 240.724C279.079 241.12 278.869 241.477 278.593 241.795C278.323 242.107 277.99 242.374 277.594 242.596C277.204 242.818 276.76 242.986 276.262 243.1C276.484 243.226 276.676 243.409 276.838 243.649L280.6 248.77ZM290.51 247.348L290.501 248.77H282.554V235.873H290.501V237.295H284.3V241.579H289.322V242.947H284.3V247.348H290.51Z" fill="white"/>
</svg>
