<svg width="24" height="32" viewBox="0 0 24 32" fill="none" xmlns="http://www.w3.org/2000/svg">
<path d="M23.7427 8.68866C23.7106 8.60898 23.663 8.53834 23.6027 8.47927L15.8956 0.772198C15.8365 0.713121 15.7645 0.665546 15.6862 0.632183C15.6078 0.600025 15.5243 0.583344 15.4408 0.583344H2.59359C1.5311 0.583344 0.666504 1.44794 0.666504 2.51043V29.4896C0.666504 30.5521 1.5311 31.4167 2.59359 31.4167H21.8644C22.9269 31.4167 23.7915 30.5521 23.7915 29.4896V8.93406C23.7915 8.85053 23.7748 8.767 23.7427 8.68866ZM18.0103 23.7083H6.44775C6.09317 23.7083 5.80537 23.4205 5.80537 23.066C5.80537 22.7114 6.09317 22.4236 6.44775 22.4236H18.0103C18.3648 22.4236 18.6526 22.7114 18.6526 23.066C18.6526 23.4205 18.3648 23.7083 18.0103 23.7083ZM18.0103 18.5695H6.44775C6.09317 18.5695 5.80537 18.2817 5.80537 17.9271C5.80537 17.5725 6.09317 17.2847 6.44775 17.2847H18.0103C18.3648 17.2847 18.6526 17.5725 18.6526 17.9271C18.6526 18.2817 18.3648 18.5695 18.0103 18.5695ZM18.0103 13.4305H6.44775C6.09317 13.4305 5.80537 13.1427 5.80537 12.7882C5.80537 12.4336 6.09317 12.1458 6.44775 12.1458H18.0103C18.3648 12.1458 18.6526 12.4336 18.6526 12.7882C18.6526 13.1428 18.3648 13.4305 18.0103 13.4305ZM16.7256 8.29168C16.3722 8.29168 16.0832 8.00388 16.0832 7.6493V2.77636L21.5985 8.29168H16.7256Z" fill="#FFFFFF"/>
</svg>
