<svg width="100" height="100" viewBox="0 0 100 100" fill="none" xmlns="http://www.w3.org/2000/svg">
<path d="M87.7531 51.6797C87.7531 30.4826 70.5078 13.2373 49.3108 13.2373C28.1137 13.2373 10.8684 30.4826 10.8684 51.6797C10.8684 72.8767 28.1137 90.122 49.3108 90.122C70.5078 90.122 87.7531 72.8767 87.7531 51.6797ZM53.0844 51.6208C53.0844 53.6354 51.4523 55.269 49.4362 55.269C47.4216 55.269 45.788 53.6354 45.788 51.6208V32.6474C45.788 30.6328 47.4216 28.9992 49.4362 28.9992C51.4508 28.9992 53.0844 30.6313 53.0844 32.6474V51.6208ZM74.1343 51.7432C74.1343 65.4301 62.9993 76.5652 49.3108 76.5652C35.6223 76.5652 24.4872 65.4301 24.4872 51.7432C24.4872 45.108 27.0716 38.8707 31.7666 34.1835C32.4789 33.4712 33.4111 33.1166 34.3448 33.1166C35.2785 33.1166 36.2138 33.4727 36.9261 34.1866C38.3507 35.6127 38.3491 37.9215 36.923 39.3461C33.6108 42.6567 31.7852 47.059 31.7852 51.7432C31.7852 61.4056 39.6468 69.2672 49.3108 69.2672C58.9748 69.2672 66.8364 61.4056 66.8364 51.7432C66.8364 47.0621 65.0154 42.6614 61.7047 39.3507C60.2802 37.9246 60.2817 35.6158 61.7063 34.1897C63.1324 32.7635 65.4412 32.7666 66.8673 34.1912C71.553 38.88 74.1343 45.1142 74.1343 51.7432Z" fill="white"/>
</svg>
