<svg width="51" height="55" viewBox="0 0 51 55" fill="none" xmlns="http://www.w3.org/2000/svg">
<path d="M48.805 54.2814H2.40392C1.9306 54.2814 1.47667 54.0918 1.14198 53.7544C0.807289 53.417 0.619263 52.9593 0.619263 52.4821V2.10205C0.619263 1.62485 0.807289 1.1672 1.14198 0.829763C1.47667 0.492332 1.9306 0.302764 2.40392 0.302764H38.0971C38.332 0.301395 38.5648 0.346783 38.7822 0.436323C38.9997 0.525864 39.1974 0.657797 39.3642 0.824558L50.0722 11.6203C50.2376 11.7884 50.3684 11.9878 50.4572 12.207C50.5461 12.4262 50.5911 12.661 50.5897 12.8978V52.4821C50.5897 52.9593 50.4017 53.417 50.067 53.7544C49.7323 54.0918 49.2784 54.2814 48.805 54.2814ZM4.18858 50.6828H47.0204V13.6355L37.3654 3.90134H4.18858V50.6828Z" fill="white"/>
<path d="M32.7433 14.697H14.8967C14.4234 14.697 13.9695 14.5075 13.6348 14.17C13.3001 13.8326 13.1121 13.3749 13.1121 12.8977V2.10202C13.1121 1.62482 13.3001 1.16717 13.6348 0.829733C13.9695 0.492302 14.4234 0.302734 14.8967 0.302734H32.7433C33.2166 0.302734 33.6706 0.492302 34.0053 0.829733C34.3399 1.16717 34.528 1.62482 34.528 2.10202V12.8977C34.528 13.3749 34.3399 13.8326 34.0053 14.17C33.6706 14.5075 33.2166 14.697 32.7433 14.697ZM16.6814 11.0985H30.9586V3.90131H16.6814V11.0985Z" fill="white"/>
<path d="M38.0973 43.4855H13.1121C12.6387 43.4855 12.1848 43.2959 11.8501 42.9585C11.5154 42.6211 11.3274 42.1634 11.3274 41.6862V23.6933C11.3274 23.2161 11.5154 22.7585 11.8501 22.421C12.1848 22.0836 12.6387 21.894 13.1121 21.894H38.0973C38.5706 21.894 39.0245 22.0836 39.3592 22.421C39.6939 22.7585 39.8819 23.2161 39.8819 23.6933V41.6862C39.8819 42.1634 39.6939 42.6211 39.3592 42.9585C39.0245 43.2959 38.5706 43.4855 38.0973 43.4855ZM14.8967 39.8869H36.3126V25.4926H14.8967V39.8869Z" fill="white"/>
</svg>
