<svg width="37" height="36" viewBox="0 0 37 36" fill="none" xmlns="http://www.w3.org/2000/svg">
<g clip-path="url(#clip0)">
<path d="M29.7847 0.185608H6.63458C3.07865 0.185608 0.185669 3.04495 0.185669 6.55954V29.4405C0.185669 32.955 3.07865 35.8144 6.63458 35.8144H29.7847C33.3406 35.8144 36.2336 32.955 36.2336 29.4404V6.55954C36.2336 3.04495 33.3406 0.185608 29.7847 0.185608ZM34.1214 29.4404C34.1214 31.8039 32.1759 33.7267 29.7847 33.7267H6.63458C4.24331 33.7267 2.29785 31.8039 2.29785 29.4404V6.55954C2.29785 4.19607 4.24331 2.27323 6.63458 2.27323H29.7847C32.1759 2.27323 34.1214 4.19607 34.1214 6.55954V29.4404Z" fill="white"/>
<path d="M30.6526 8.01187H14.5676C14.1254 6.71372 12.8831 5.77582 11.4224 5.77582C9.96176 5.77582 8.71945 6.71372 8.27723 8.01187H5.76648C5.18324 8.01187 4.71039 8.47922 4.71039 9.05568C4.71039 9.63214 5.18324 10.0995 5.76648 10.0995H8.2773C8.71952 11.3976 9.96183 12.3355 11.4225 12.3355C12.8831 12.3355 14.1254 11.3976 14.5677 10.0995H30.6527C31.2359 10.0995 31.7088 9.63214 31.7088 9.05568C31.7088 8.47922 31.2359 8.01187 30.6526 8.01187ZM11.4224 10.2479C10.7573 10.2479 10.2161 9.71307 10.2161 9.05568C10.2161 8.39829 10.7573 7.86344 11.4224 7.86344C12.0875 7.86344 12.6287 8.39829 12.6287 9.05568C12.6287 9.71307 12.0875 10.2479 11.4224 10.2479Z" fill="white"/>
<path d="M30.6526 16.9561H28.1418C27.6996 15.658 26.4572 14.7201 24.9966 14.7201C23.536 14.7201 22.2937 15.658 21.8515 16.9561H5.76648C5.18324 16.9561 4.71039 17.4235 4.71039 18C4.71039 18.5764 5.18324 19.0438 5.76648 19.0438H21.8515C22.2937 20.3419 23.5361 21.2798 24.9967 21.2798C26.4573 21.2798 27.6997 20.3419 28.1419 19.0438H30.6527C31.2359 19.0438 31.7088 18.5764 31.7088 18C31.7088 17.4235 31.2359 16.9561 30.6526 16.9561ZM24.9967 19.1922C24.3316 19.1922 23.7904 18.6573 23.7904 18C23.7904 17.3426 24.3316 16.8077 24.9967 16.8077C25.6618 16.8077 26.203 17.3426 26.203 18C26.203 18.6573 25.6618 19.1922 24.9967 19.1922Z" fill="white"/>
<path d="M30.6526 25.9005H19.0924C18.6502 24.6023 17.4078 23.6644 15.9472 23.6644C14.4866 23.6644 13.2442 24.6023 12.802 25.9005H5.76648C5.18324 25.9005 4.71039 26.3678 4.71039 26.9443C4.71039 27.5208 5.18324 27.9881 5.76648 27.9881H12.802C13.2442 29.2863 14.4866 30.2241 15.9472 30.2241C17.4078 30.2241 18.6502 29.2863 19.0924 27.9881H30.6527C31.2359 27.9881 31.7088 27.5208 31.7088 26.9443C31.7088 26.3678 31.2359 25.9005 30.6526 25.9005ZM15.9472 28.1366C15.2821 28.1366 14.7409 27.6018 14.7409 26.9444C14.7409 26.287 15.2821 25.7521 15.9472 25.7521C16.6123 25.7521 17.1535 26.2869 17.1535 26.9443C17.1535 27.6017 16.6123 28.1366 15.9472 28.1366Z" fill="white"/>
</g>
<defs>
<clipPath id="clip0">
<rect width="36.0479" height="35.6287" fill="white" transform="translate(0.185669 0.185608)"/>
</clipPath>
</defs>
</svg>
